<svg width="4611" height="770" viewBox="0 0 4611 770" fill="none" xmlns="http://www.w3.org/2000/svg">
<path d="M4415.04 611.824V286.606H4496.34V323.324H4508.14C4512.95 310.21 4520.82 300.593 4531.75 294.474C4543.11 288.354 4556.23 285.294 4571.09 285.294H4610.43V358.731H4569.78C4548.8 358.731 4531.53 364.413 4517.98 375.778C4504.43 386.706 4497.65 403.754 4497.65 426.921V611.824H4415.04Z" fill="white"/>
<path d="M4224.14 621.006C4191.79 621.006 4163.16 614.231 4138.24 600.68C4113.77 586.692 4094.53 567.24 4080.54 542.324C4066.99 516.971 4060.22 487.247 4060.22 453.152V445.283C4060.22 411.188 4066.99 381.682 4080.54 356.766C4094.1 331.413 4113.11 311.962 4137.59 298.411C4162.07 284.423 4190.48 277.429 4222.83 277.429C4254.74 277.429 4282.49 284.641 4306.1 299.066C4329.7 313.054 4348.06 332.725 4361.18 358.078C4374.29 382.994 4380.85 412.062 4380.85 445.283V473.478H4144.15C4145.02 495.771 4153.33 513.911 4169.06 527.899C4184.8 541.887 4204.03 548.881 4226.76 548.881C4249.93 548.881 4266.98 543.854 4277.91 533.8C4288.83 523.747 4297.14 512.6 4302.82 500.361L4370.36 535.768C4364.24 547.133 4355.28 559.591 4343.47 573.141C4332.11 586.255 4316.81 597.62 4297.58 607.237C4278.34 616.416 4253.86 621.006 4224.14 621.006ZM4144.8 411.844H4296.92C4295.17 393.047 4287.52 377.967 4273.97 366.602C4260.86 355.237 4243.59 349.554 4222.17 349.554C4199.88 349.554 4182.18 355.237 4169.06 366.602C4155.95 377.967 4147.86 393.047 4144.8 411.844Z" fill="white"/>
<path d="M3906.52 621.006C3864.12 621.006 3829.37 611.827 3802.27 593.467C3775.17 575.108 3758.78 548.881 3753.09 514.786L3829.15 495.115C3832.21 510.415 3837.24 522.435 3844.23 531.178C3851.67 539.92 3860.63 546.258 3871.12 550.193C3882.05 553.689 3893.85 555.438 3906.52 555.438C3925.76 555.438 3939.96 552.16 3949.14 545.603C3958.32 538.609 3962.91 530.085 3962.91 520.031C3962.91 509.977 3958.54 502.328 3949.8 497.082C3941.06 491.4 3927.07 486.81 3907.84 483.313L3889.48 480.035C3866.75 475.663 3845.98 469.762 3827.19 462.331C3808.39 454.463 3793.31 443.754 3781.94 430.203C3770.58 416.652 3764.9 399.167 3764.9 377.748C3764.9 345.401 3776.7 320.704 3800.3 303.656C3823.91 286.171 3854.94 277.429 3893.41 277.429C3929.69 277.429 3959.85 285.516 3983.89 301.689C4007.94 317.863 4023.67 339.063 4031.1 365.29L3954.39 388.895C3950.89 372.284 3943.68 360.482 3932.75 353.488C3922.26 346.494 3909.15 342.997 3893.41 342.997C3877.67 342.997 3865.65 345.838 3857.35 351.521C3849.04 356.766 3844.89 364.197 3844.89 373.814C3844.89 384.305 3849.26 392.173 3858 397.419C3866.75 402.227 3878.55 405.943 3893.41 408.565L3911.77 411.844C3936.25 416.215 3958.32 422.116 3977.99 429.547C3998.1 436.541 4013.84 446.813 4025.2 460.364C4037 473.478 4042.91 491.4 4042.91 514.13C4042.91 548.225 4030.45 574.671 4005.53 593.467C3981.05 611.827 3948.05 621.006 3906.52 621.006Z" fill="white"/>
<path d="M3322.85 611.826L3276.95 286.608H3358.91L3387.76 556.093H3399.56L3441.52 286.608H3573.97L3615.93 556.093H3627.74L3656.59 286.608H3738.55L3692.65 611.826H3555.61L3513.65 342.341H3501.85L3459.88 611.826H3322.85Z" fill="white"/>
<path d="M3090.51 621.006C3058.16 621.006 3029.09 614.449 3003.3 601.336C2977.51 588.222 2957.19 569.207 2942.33 544.291C2927.46 519.375 2920.03 489.433 2920.03 454.463V443.972C2920.03 409.002 2927.46 379.06 2942.33 354.144C2957.19 329.228 2977.51 310.213 3003.3 297.099C3029.09 283.986 3058.16 277.429 3090.51 277.429C3122.86 277.429 3151.92 283.986 3177.72 297.099C3203.51 310.213 3223.83 329.228 3238.69 354.144C3253.56 379.06 3260.99 409.002 3260.99 443.972V454.463C3260.99 489.433 3253.56 519.375 3238.69 544.291C3223.83 569.207 3203.51 588.222 3177.72 601.336C3151.92 614.449 3122.86 621.006 3090.51 621.006ZM3090.51 547.57C3115.86 547.57 3136.84 539.483 3153.45 523.31C3170.07 506.699 3178.37 483.094 3178.37 452.496V445.939C3178.37 415.341 3170.07 391.955 3153.45 375.781C3137.28 359.171 3116.3 350.865 3090.51 350.865C3065.16 350.865 3044.17 359.171 3027.56 375.781C3010.95 391.955 3002.65 415.341 3002.65 445.939V452.496C3002.65 483.094 3010.95 506.699 3027.56 523.31C3044.17 539.483 3065.16 547.57 3090.51 547.57Z" fill="white"/>
<path d="M2726.67 611.824V286.606H2807.97V323.324H2819.77C2824.58 310.21 2832.45 300.594 2843.38 294.474C2854.74 288.354 2867.86 285.294 2882.72 285.294H2922.06V358.731H2881.41C2860.42 358.731 2843.16 364.413 2829.61 375.778C2816.06 386.707 2809.28 403.754 2809.28 426.922V611.824H2726.67Z" fill="white"/>
<path d="M2314.85 611.824V535.765H2375.18V228.906H2314.85V152.847H2550.9C2578.87 152.847 2603.13 157.655 2623.68 167.272C2644.66 176.451 2660.83 189.783 2672.2 207.268C2684 224.316 2689.9 244.861 2689.9 268.902V275.459C2689.9 296.441 2685.97 313.707 2678.1 327.258C2670.23 340.372 2660.83 350.644 2649.91 358.075C2639.42 365.069 2629.36 370.096 2619.75 373.156V384.958C2629.36 387.581 2639.85 392.608 2651.22 400.039C2662.58 407.033 2672.2 417.305 2680.07 430.856C2688.37 444.406 2692.53 462.11 2692.53 483.966V490.523C2692.53 515.876 2686.62 537.732 2674.82 556.091C2663.02 574.013 2646.63 587.782 2625.65 597.399C2605.1 607.015 2581.06 611.824 2553.52 611.824H2314.85ZM2461.73 533.142H2543.03C2561.83 533.142 2576.91 528.552 2588.27 519.373C2600.08 510.193 2605.98 497.08 2605.98 480.032V473.475C2605.98 456.427 2600.29 443.314 2588.93 434.134C2577.56 424.955 2562.26 420.365 2543.03 420.365H2461.73V533.142ZM2461.73 341.683H2541.72C2559.64 341.683 2574.28 337.093 2585.65 327.914C2597.45 318.734 2603.35 306.058 2603.35 289.884V283.327C2603.35 266.717 2597.67 254.04 2586.31 245.298C2574.94 236.118 2560.08 231.528 2541.72 231.528H2461.73V341.683Z" fill="white"/>
<line x1="1871.85" y1="-1.74846e-07" x2="1871.85" y2="770" stroke="white" stroke-width="8"/>
<g clip-path="url(#clip0_1761_69)">
<path d="M269.381 372.205C259.492 362.275 244.471 357.318 224.266 357.318C204.061 357.318 188.408 362.002 174.342 371.337C174.188 371.422 174.052 371.524 173.915 371.626C157.087 382.971 165.527 409.356 185.817 409.356H186.141C187.095 409.356 187.948 408.743 188.34 407.874C190.42 403.19 193.762 399.442 198.332 396.632C203.362 393.566 209.227 392.033 215.979 392.033C223.277 392.033 228.75 393.855 232.331 397.5C235.928 401.18 237.139 406.102 235.911 412.252L233.575 424.124H200.668C179.9 424.124 163.157 428.4 150.403 436.968C137.632 445.536 129.686 457.851 126.515 473.829C123.582 488.682 125.901 500.418 133.54 509.088C141.127 517.776 152.943 522.102 168.903 522.102C183.14 522.102 195.229 518.593 205.186 511.558C212.126 506.636 217.224 500.52 220.463 493.179H221.35L216.746 516.328C216.456 517.827 217.599 519.224 219.099 519.224H238.264C249.756 519.224 259.611 511.098 261.845 499.839L279.185 412.252C282.493 395.49 279.237 382.153 269.381 372.222V372.205ZM225.34 465.738C223.908 473.062 219.986 478.99 213.609 483.504C207.215 488.035 199.815 490.3 191.341 490.3C183.651 490.3 177.956 488.427 174.273 484.662C170.608 480.915 169.397 475.753 170.693 469.195C171.92 463.046 174.921 458.089 179.713 454.308C184.487 450.561 190.13 448.687 196.678 448.687H228.699L225.34 465.738Z" fill="#F7F3EF"/>
<path d="M385.018 480.182H356.22C351.037 480.182 347.149 478.598 344.626 475.413C342.068 472.244 341.318 468.054 342.358 462.842L372.401 311.071C372.691 309.589 371.549 308.209 370.031 308.209H301.641C300.482 308.209 299.51 309.027 299.271 310.134L292.502 344.355C292.212 345.837 293.355 347.217 294.855 347.217H319.033C320.55 347.217 321.693 348.613 321.403 350.095L299.084 462.842C296.867 474.016 297.276 483.861 300.311 492.327C303.346 500.81 308.632 507.419 316.151 512.137C323.671 516.873 333.031 519.223 344.182 519.223H378.266C379.426 519.223 380.398 518.406 380.636 517.282L387.406 483.061C387.695 481.579 386.553 480.199 385.053 480.199L385.018 480.182Z" fill="#F7F3EF"/>
<path d="M559.991 360.214H517.893C517.143 360.214 516.426 360.571 515.966 361.168L471.618 420.326H457.483L479.103 311.054C479.393 309.572 478.25 308.193 476.75 308.193H438.369C437.227 308.193 436.238 309.01 436.016 310.117L395.214 516.328C394.924 517.81 396.067 519.19 397.567 519.19H418.164C429.639 519.19 439.511 511.081 441.745 499.839L450.27 456.761H464.115L484.661 517.554C484.985 518.525 485.906 519.19 486.929 519.19H530.834C532.505 519.19 533.665 517.537 533.102 515.987L505.326 437.973L561.883 364.08C563.094 362.496 561.968 360.214 559.973 360.214H559.991Z" fill="#F7F3EF"/>
<path d="M693.718 387.519C689.916 377.98 683.403 370.57 674.178 365.273C664.937 359.975 653.206 357.318 638.969 357.318C624.732 357.318 612.2 359.975 600.759 365.273C589.335 370.57 579.821 377.98 572.267 387.519C564.697 397.058 559.667 408.181 557.143 420.905L549.709 458.481C547.186 471.188 547.817 482.328 551.602 491.867C555.387 501.406 561.952 508.833 571.278 514.13C580.622 519.428 592.302 522.085 606.334 522.085C620.367 522.085 633.342 519.428 644.681 514.13C656.02 508.833 665.483 501.406 673.036 491.867C680.589 482.328 685.636 471.205 688.143 458.481L695.577 420.905C698.083 408.181 697.452 397.058 693.684 387.519H693.718ZM652.354 420.922L644.92 458.498C643.283 466.777 639.804 473.181 634.485 477.712C629.165 482.226 622.276 484.509 613.819 484.509C605.362 484.509 599.599 482.243 595.968 477.712C592.336 473.181 591.364 466.777 593.001 458.498L600.435 420.922C602.123 412.456 605.652 405.983 611.04 401.554C616.428 397.126 623.265 394.911 631.552 394.911C639.839 394.911 646.011 397.126 649.574 401.554C653.121 405.983 654.042 412.456 652.371 420.922H652.354Z" fill="#F7F3EF"/>
<path d="M853.26 418.026C852.51 421.825 850.464 425.061 847.685 427.361C844.871 429.643 841.291 431.006 837.42 431.006H807.463C805.945 431.006 804.82 429.643 805.11 428.144L806.559 420.888C808.264 412.218 807.224 405.472 803.49 400.669C799.739 395.848 793.89 393.446 786.03 393.446C777.744 393.446 770.974 395.848 765.689 400.669C760.403 405.472 756.908 412.218 755.186 420.888L739.584 499.805C737.351 511.064 727.461 519.189 716.004 519.189H695.406C693.889 519.189 692.764 517.793 693.054 516.311L723.557 362.138C723.779 361.014 724.785 360.214 725.91 360.214H761.392C762.91 360.214 764.052 361.576 763.779 363.075L758.323 390.551H758.783C762.296 382.289 766.951 375.544 772.731 370.332C782.33 361.661 794.726 357.318 809.918 357.318C827.412 357.318 839.961 362.632 847.583 373.21C855.204 383.822 857.097 398.761 853.277 418.026H853.26Z" fill="#F7F3EF"/>
<path d="M155.484 308.175H42.4898C41.3474 308.175 40.3585 308.993 40.1369 310.117L0.0510375 516.345C-0.238822 517.827 0.903564 519.206 2.40401 519.206H25.8655C37.3576 519.206 47.264 511.047 49.4635 499.771L60.8021 441.533C61.0238 440.408 62.0127 439.574 63.1551 439.574H105.065C116.591 439.574 126.481 431.415 128.663 420.121L131.255 406.767C131.545 405.302 130.402 403.905 128.885 403.905H70.9813C69.4808 403.905 68.3214 402.525 68.6283 401.043L79.4383 345.769C79.66 344.645 80.6489 343.827 81.7913 343.827H131.664C143.19 343.827 153.08 335.668 155.262 324.375L157.854 311.02C158.144 309.538 157.001 308.158 155.484 308.158V308.175Z" fill="#F7F3EF"/>
<path d="M1033.65 340.114C1029.61 329.996 1022.69 322.143 1012.96 316.556C1003.19 311.003 991.011 308.176 976.365 308.176H910.806C909.169 308.176 907.77 309.334 907.464 310.918L867.071 515.135C866.662 517.248 868.264 519.206 870.413 519.206H934.625C949.237 519.206 962.554 516.362 974.523 510.69C986.527 504.983 996.587 497.029 1004.65 486.842C1012.72 476.622 1018.09 464.767 1020.76 451.259L1035.68 375.834C1038.39 362.138 1037.73 350.215 1033.67 340.114H1033.65ZM992.426 375.851L977.473 451.276C975.836 459.588 971.829 466.215 965.47 471.222C959.076 476.264 951.454 478.768 942.622 478.768H917.54L943.287 348.682H968.368C977.2 348.682 983.85 351.186 988.232 356.194C992.614 361.202 994.046 367.76 992.443 375.868L992.426 375.851Z" fill="#F7F3EF"/>
<path d="M1185.06 322.773C1174.32 313.047 1158.24 308.176 1136.88 308.176H1071.92C1070.3 308.176 1068.88 309.334 1068.57 310.918L1028.15 515.135C1027.74 517.248 1029.34 519.206 1031.49 519.206H1097.75C1112.53 519.206 1125.83 516.703 1137.58 511.695C1149.34 506.687 1159.08 499.601 1166.73 490.419C1174.42 481.272 1179.47 470.541 1181.94 458.209C1184.06 447.426 1183.44 438.364 1180.1 431.023C1176.73 423.732 1171.54 418.231 1164.45 414.551C1157.39 410.906 1149.14 409.169 1139.67 409.339L1139.85 408.504C1148.3 408.504 1156.5 406.562 1164.52 402.696C1172.48 398.846 1179.3 393.446 1185.01 386.497C1190.72 379.581 1194.48 371.49 1196.32 362.241C1199.59 345.667 1195.82 332.483 1185.08 322.756L1185.06 322.773ZM1138.82 455.926C1137.05 464.784 1132.97 471.699 1126.61 476.707C1120.25 481.749 1112.31 484.253 1102.93 484.253H1076.11L1087.38 427.292H1114.2C1123.6 427.292 1130.52 429.865 1134.9 434.975C1139.25 440.051 1140.58 447.069 1138.84 455.926H1138.82ZM1151.59 368.032C1150.06 375.748 1146.44 381.863 1140.73 386.377C1135.02 390.891 1127.93 393.191 1119.47 393.191H1094.12L1103.99 343.18H1129.38C1137.83 343.18 1144.02 345.343 1148 349.687C1151.93 354.03 1153.14 360.145 1151.58 368.032H1151.59Z" fill="#F7F3EF"/>
<path d="M1467.66 413.58C1467.18 416.084 1466.23 418.554 1465.19 420.751C1463.58 424.158 1461.47 427.378 1458.93 430.154C1453.17 436.474 1445.02 439.676 1436.7 441.362C1428.37 443.049 1403.07 441.958 1392.52 439.42C1365.61 432.931 1337.84 433.067 1321.38 439.42C1310.95 443.457 1307.3 445.774 1301.77 450.509C1279.97 469.246 1270.2 514.556 1261.55 541.231C1255.67 559.474 1249.89 578.45 1236.66 592.843C1216.28 614.953 1182.37 620.983 1151.63 620.983H987.891C986.203 620.983 984.924 619.45 985.265 617.798L988.437 601.513C991.011 588.244 1002.66 578.671 1016.18 578.671H1135.51C1161.7 578.671 1189.72 575.009 1204.23 554.994C1212.38 543.735 1214.71 529.801 1218.04 516.532C1229.7 470.098 1233.57 427.173 1280.1 408.879C1266.39 400.311 1256.42 386.48 1252.96 371.268C1246.58 343.18 1261.67 314.904 1263.05 286.219C1263.67 274.006 1260.79 260.226 1250.06 253.446C1242.54 248.694 1232.89 248.54 1223.85 248.54C1189.92 248.574 1168.47 248.591 1129.04 248.626H1082.62C1064.87 248.626 1051.56 232.478 1054.95 215.086L1055.91 210.146C1056.16 208.886 1057.25 207.983 1058.53 207.983C1079.52 207.983 1196.42 208.102 1236.37 207.983C1259.44 207.932 1285.35 209.005 1300.97 225.051C1306.16 230.382 1309.46 236.583 1311.41 243.294C1311.51 243.567 1311.56 243.839 1311.65 244.129C1316.13 260.566 1312.6 279.968 1308.1 297.087C1302.3 319.367 1296.06 345.258 1308.51 366.55C1313.45 375.016 1321.21 381.267 1330.42 384.589C1335.57 386.445 1337.77 387.382 1343.22 387.331C1345.95 387.297 1348.68 387.042 1351.37 386.548C1356.75 385.611 1362.59 384.299 1367.44 383.345C1369.75 382.885 1372.09 382.477 1374.44 382.136C1380.82 381.233 1387.66 381.063 1394.15 382.357C1398.91 383.311 1403.57 385.066 1407.56 387.859C1411.8 390.84 1414.29 394.537 1416.52 399.136C1417.77 401.708 1419.32 404.314 1421.84 405.66C1426.36 408.061 1433.39 406.443 1438.25 406.051C1443.31 405.643 1448.34 404.859 1453.39 404.28C1455.84 403.99 1458.3 403.752 1460.77 403.633C1462.71 403.547 1464.83 403.786 1466.28 405.234C1467.32 406.273 1467.83 407.755 1467.93 409.237C1468.03 410.667 1467.91 412.115 1467.64 413.563L1467.66 413.58Z" fill="#F7F3EF"/>
</g>
<defs>
<clipPath id="clip0_1761_69">
<rect width="1468" height="413" fill="white" transform="translate(0 208)"/>
</clipPath>
</defs>
</svg>
