<svg width="4329" height="770" viewBox="0 0 4329 770" fill="none" xmlns="http://www.w3.org/2000/svg">
<path d="M4133.18 611.824V286.606H4214.49V323.324H4226.29C4231.1 310.21 4238.97 300.593 4249.89 294.474C4261.26 288.354 4274.37 285.294 4289.24 285.294H4328.58V358.731H4287.92C4266.94 358.731 4249.68 364.413 4236.13 375.778C4222.57 386.706 4215.8 403.754 4215.8 426.921V611.824H4133.18Z" fill="black"/>
<path d="M3942.29 621.006C3909.94 621.006 3881.31 614.231 3856.39 600.68C3831.91 586.692 3812.68 567.24 3798.69 542.324C3785.14 516.971 3778.37 487.247 3778.37 453.152V445.283C3778.37 411.188 3785.14 381.682 3798.69 356.766C3812.24 331.413 3831.26 311.962 3855.74 298.411C3880.21 284.423 3908.63 277.429 3940.97 277.429C3972.88 277.429 4000.64 284.641 4024.25 299.066C4047.85 313.054 4066.21 332.725 4079.32 358.078C4092.44 382.994 4098.99 412.062 4098.99 445.283V473.478H3862.29C3863.17 495.771 3871.47 513.911 3887.21 527.899C3902.95 541.887 3922.18 548.881 3944.91 548.881C3968.08 548.881 3985.12 543.854 3996.05 533.8C4006.98 523.747 4015.29 512.6 4020.97 500.361L4088.5 535.768C4082.38 547.133 4073.42 559.591 4061.62 573.141C4050.25 586.255 4034.96 597.62 4015.72 607.237C3996.49 616.416 3972.01 621.006 3942.29 621.006ZM3862.95 411.844H4015.07C4013.32 393.047 4005.67 377.967 3992.12 366.602C3979 355.237 3961.74 349.554 3940.32 349.554C3918.03 349.554 3900.32 355.237 3887.21 366.602C3874.1 377.967 3866.01 393.047 3862.95 411.844Z" fill="black"/>
<path d="M3624.67 621.006C3582.27 621.006 3547.52 611.827 3520.42 593.467C3493.32 575.108 3476.92 548.881 3471.24 514.786L3547.3 495.115C3550.36 510.415 3555.39 522.435 3562.38 531.178C3569.81 539.92 3578.77 546.258 3589.26 550.193C3600.19 553.689 3611.99 555.438 3624.67 555.438C3643.9 555.438 3658.11 552.16 3667.29 545.603C3676.47 538.609 3681.06 530.085 3681.06 520.031C3681.06 509.977 3676.69 502.328 3667.95 497.082C3659.2 491.4 3645.22 486.81 3625.98 483.313L3607.62 480.035C3584.89 475.663 3564.13 469.762 3545.33 462.331C3526.54 454.463 3511.46 443.754 3500.09 430.203C3488.73 416.652 3483.04 399.167 3483.04 377.748C3483.04 345.401 3494.85 320.704 3518.45 303.656C3542.05 286.171 3573.09 277.429 3611.56 277.429C3647.84 277.429 3678 285.516 3702.04 301.689C3726.08 317.863 3741.82 339.063 3749.25 365.29L3672.54 388.895C3669.04 372.284 3661.83 360.482 3650.9 353.488C3640.41 346.494 3627.29 342.997 3611.56 342.997C3595.82 342.997 3583.8 345.838 3575.49 351.521C3567.19 356.766 3563.04 364.197 3563.04 373.814C3563.04 384.305 3567.41 392.173 3576.15 397.419C3584.89 402.227 3596.69 405.943 3611.56 408.565L3629.92 411.844C3654.39 416.215 3676.47 422.116 3696.14 429.547C3716.25 436.541 3731.98 446.813 3743.35 460.364C3755.15 473.478 3761.05 491.4 3761.05 514.13C3761.05 548.225 3748.59 574.671 3723.68 593.467C3699.2 611.827 3666.2 621.006 3624.67 621.006Z" fill="black"/>
<path d="M3040.99 611.826L2995.09 286.608H3077.05L3105.9 556.093H3117.71L3159.67 286.608H3292.12L3334.08 556.093H3345.88L3374.73 286.608H3456.69L3410.8 611.826H3273.76L3231.79 342.341H3219.99L3178.03 611.826H3040.99Z" fill="black"/>
<path d="M2808.66 621.006C2776.31 621.006 2747.24 614.449 2721.45 601.336C2695.66 588.222 2675.33 569.207 2660.47 544.291C2645.61 519.375 2638.18 489.433 2638.18 454.463V443.972C2638.18 409.002 2645.61 379.06 2660.47 354.144C2675.33 329.228 2695.66 310.213 2721.45 297.099C2747.24 283.986 2776.31 277.429 2808.66 277.429C2841 277.429 2870.07 283.986 2895.86 297.099C2921.65 310.213 2941.98 329.228 2956.84 354.144C2971.7 379.06 2979.13 409.002 2979.13 443.972V454.463C2979.13 489.433 2971.7 519.375 2956.84 544.291C2941.98 569.207 2921.65 588.222 2895.86 601.336C2870.07 614.449 2841 621.006 2808.66 621.006ZM2808.66 547.57C2834.01 547.57 2854.99 539.483 2871.6 523.31C2888.21 506.699 2896.52 483.094 2896.52 452.496V445.939C2896.52 415.341 2888.21 391.955 2871.6 375.781C2855.43 359.171 2834.45 350.865 2808.66 350.865C2783.3 350.865 2762.32 359.171 2745.71 375.781C2729.1 391.955 2720.79 415.341 2720.79 445.939V452.496C2720.79 483.094 2729.1 506.699 2745.71 523.31C2762.32 539.483 2783.3 547.57 2808.66 547.57Z" fill="black"/>
<path d="M2444.81 611.824V286.606H2526.12V323.324H2537.92C2542.73 310.21 2550.6 300.594 2561.52 294.474C2572.89 288.354 2586 285.294 2600.86 285.294H2640.21V358.731H2599.55C2578.57 358.731 2561.3 364.413 2547.75 375.778C2534.2 386.707 2527.43 403.754 2527.43 426.922V611.824H2444.81Z" fill="black"/>
<path d="M2033 611.824V535.765H2093.32V228.906H2033V152.847H2269.05C2297.02 152.847 2321.28 157.655 2341.83 167.272C2362.81 176.451 2378.98 189.783 2390.35 207.268C2402.15 224.316 2408.05 244.861 2408.05 268.902V275.459C2408.05 296.441 2404.12 313.707 2396.25 327.258C2388.38 340.372 2378.98 350.644 2368.05 358.075C2357.56 365.069 2347.51 370.096 2337.89 373.156V384.958C2347.51 387.581 2358 392.608 2369.36 400.039C2380.73 407.033 2390.35 417.305 2398.21 430.856C2406.52 444.406 2410.67 462.11 2410.67 483.966V490.523C2410.67 515.876 2404.77 537.732 2392.97 556.091C2381.17 574.013 2364.77 587.782 2343.79 597.399C2323.25 607.015 2299.21 611.824 2271.67 611.824H2033ZM2179.87 533.142H2261.18C2279.97 533.142 2295.05 528.552 2306.42 519.373C2318.22 510.193 2324.12 497.08 2324.12 480.032V473.475C2324.12 456.427 2318.44 443.314 2307.07 434.134C2295.71 424.955 2280.41 420.365 2261.18 420.365H2179.87V533.142ZM2179.87 341.683H2259.87C2277.79 341.683 2292.43 337.093 2303.8 327.914C2315.6 318.734 2321.5 306.058 2321.5 289.884V283.327C2321.5 266.717 2315.82 254.04 2304.45 245.298C2293.09 236.118 2278.22 231.528 2259.87 231.528H2179.87V341.683Z" fill="black"/>
<g clip-path="url(#clip0_1268_121)">
<path d="M290.919 402.454C280.239 391.757 264.016 386.418 242.196 386.418C220.376 386.418 203.472 391.463 188.28 401.518C188.115 401.61 187.967 401.72 187.82 401.83C169.646 414.05 178.761 442.47 200.673 442.47H201.023C202.054 442.47 202.975 441.81 203.398 440.874C205.645 435.828 209.254 431.792 214.189 428.764C219.621 425.462 225.955 423.811 233.247 423.811C241.128 423.811 247.039 425.774 250.906 429.7C254.791 433.663 256.098 438.966 254.772 445.589L252.25 458.378H216.711C194.283 458.378 176.201 462.983 162.428 472.212C148.636 481.441 140.055 494.706 136.63 511.917C133.463 527.916 135.967 540.558 144.216 549.897C152.41 559.254 165.171 563.914 182.406 563.914C197.782 563.914 210.837 560.135 221.591 552.557C229.085 547.255 234.591 540.668 238.09 532.76H239.047L234.075 557.694C233.762 559.309 234.996 560.814 236.616 560.814H257.314C269.724 560.814 280.368 552.062 282.78 539.934L301.507 445.589C305.079 427.535 301.562 413.169 290.919 402.472V402.454ZM243.356 503.201C241.809 511.091 237.574 517.476 230.687 522.338C223.782 527.219 215.791 529.659 206.639 529.659C198.334 529.659 192.184 527.641 188.207 523.586C184.248 519.549 182.94 513.99 184.34 506.926C185.666 500.303 188.906 494.963 194.081 490.89C199.237 486.854 205.332 484.835 212.402 484.835H246.983L243.356 503.201Z" fill="#191919"/>
<path d="M415.801 518.76H384.7C379.102 518.76 374.904 517.054 372.178 513.623C369.416 510.21 368.606 505.697 369.729 500.082L402.174 336.603C402.488 335.007 401.254 333.521 399.615 333.521H325.757C324.505 333.521 323.456 334.402 323.198 335.594L315.888 372.455C315.575 374.051 316.808 375.537 318.429 375.537H344.539C346.178 375.537 347.412 377.042 347.099 378.638L322.995 500.082C320.602 512.119 321.044 522.724 324.321 531.842C327.599 540.98 333.307 548.099 341.428 553.181C349.548 558.282 359.657 560.814 371.7 560.814H408.509C409.761 560.814 410.811 559.933 411.068 558.722L418.379 521.861C418.692 520.265 417.458 518.779 415.837 518.779L415.801 518.76Z" fill="#191919"/>
<path d="M604.763 389.537H559.299C558.489 389.537 557.716 389.922 557.218 390.564L509.324 454.286H494.059L517.408 336.585C517.721 334.989 516.487 333.503 514.867 333.503H473.417C472.184 333.503 471.116 334.383 470.876 335.576L426.812 557.694C426.499 559.291 427.733 560.777 429.353 560.777H451.597C463.99 560.777 474.651 552.043 477.063 539.934L486.27 493.532H501.222L523.411 559.016C523.761 560.061 524.755 560.777 525.86 560.777H573.275C575.08 560.777 576.332 558.997 575.724 557.328L545.728 473.295L606.807 393.702C608.114 391.995 606.899 389.537 604.744 389.537H604.763Z" fill="#191919"/>
<path d="M749.182 418.948C745.075 408.674 738.041 400.692 728.079 394.986C718.099 389.28 705.431 386.418 690.055 386.418C674.68 386.418 661.145 389.28 648.79 394.986C636.453 400.692 626.178 408.674 618.02 418.948C609.845 429.223 604.413 441.204 601.687 454.91L593.659 495.385C590.934 509.073 591.615 521.072 595.703 531.347C599.791 541.622 606.88 549.621 616.952 555.328C627.043 561.034 639.657 563.896 654.811 563.896C669.966 563.896 683.979 561.034 696.224 555.328C708.469 549.621 718.688 541.622 726.846 531.347C735.003 521.072 740.453 509.091 743.16 495.385L751.189 454.91C753.896 441.204 753.214 429.223 749.145 418.948H749.182ZM704.51 454.928L696.481 495.404C694.714 504.321 690.957 511.219 685.212 516.1C679.467 520.962 672.028 523.421 662.895 523.421C653.762 523.421 647.538 520.981 643.616 516.1C639.693 511.219 638.644 504.321 640.412 495.404L648.44 454.928C650.263 445.81 654.075 438.837 659.893 434.067C665.712 429.297 673.096 426.911 682.045 426.911C690.994 426.911 697.66 429.297 701.508 434.067C705.338 438.837 706.333 445.81 704.528 454.928H704.51Z" fill="#191919"/>
<path d="M921.479 451.809C920.669 455.901 918.459 459.387 915.458 461.864C912.419 464.322 908.553 465.79 904.373 465.79H872.02C870.381 465.79 869.166 464.323 869.479 462.708L871.044 454.892C872.885 445.553 871.762 438.287 867.729 433.113C863.678 427.92 857.362 425.333 848.874 425.333C839.924 425.333 832.614 427.92 826.906 433.113C821.198 438.287 817.423 445.553 815.563 454.892L798.715 539.897C796.302 552.025 785.622 560.777 773.248 560.777H751.005C749.366 560.777 748.15 559.272 748.463 557.676L781.406 391.61C781.645 390.399 782.731 389.537 783.947 389.537H822.266C823.905 389.537 825.138 391.005 824.844 392.619L818.951 422.214H819.448C823.242 413.316 828.269 406.05 834.511 400.435C844.878 391.096 858.265 386.418 874.671 386.418C893.564 386.418 907.116 392.142 915.347 403.536C923.578 414.967 925.622 431.058 921.497 451.809H921.479Z" fill="#191919"/>
<path d="M167.915 333.484H45.887C44.6532 333.484 43.5852 334.365 43.3459 335.576L0.0551378 557.713C-0.257896 559.309 0.975825 560.795 2.59623 560.795H27.9335C40.3444 560.795 51.0428 552.007 53.4182 539.861L65.6633 477.129C65.9027 475.918 66.9707 475.019 68.2044 475.019H113.465C125.913 475.019 136.593 466.231 138.95 454.066L141.749 439.682C142.062 438.104 140.828 436.599 139.189 436.599H76.6563C75.0359 436.599 73.7838 435.113 74.1152 433.517L85.7895 373.978C86.0289 372.767 87.0969 371.886 88.3306 371.886H142.191C154.639 371.886 165.319 363.098 167.675 350.933L170.474 336.548C170.787 334.952 169.554 333.466 167.915 333.466V333.484Z" fill="#191919"/>
<path d="M1116.3 367.887C1111.93 356.988 1104.46 348.53 1093.94 342.511C1083.39 336.53 1070.24 333.484 1054.43 333.484H983.626C981.858 333.484 980.348 334.732 980.016 336.438L936.394 556.41C935.952 558.685 937.683 560.795 940.003 560.795H1009.35C1025.13 560.795 1039.51 557.731 1052.44 551.621C1065.4 545.475 1076.27 536.906 1084.97 525.934C1093.68 514.926 1099.48 502.156 1102.38 487.606L1118.49 406.362C1121.42 391.61 1120.7 378.767 1116.32 367.887H1116.3ZM1071.77 406.38L1055.62 487.624C1053.86 496.578 1049.53 503.715 1042.66 509.11C1035.75 514.541 1027.52 517.238 1017.99 517.238H990.899L1018.7 377.115H1045.79C1055.33 377.115 1062.51 379.813 1067.24 385.207C1071.97 390.601 1073.52 397.665 1071.79 406.399L1071.77 406.38Z" fill="#191919"/>
<path d="M1279.81 349.208C1268.21 338.732 1250.85 333.484 1227.77 333.484H1157.62C1155.87 333.484 1154.34 334.732 1154.01 336.438L1110.35 556.41C1109.91 558.685 1111.64 560.795 1113.96 560.795H1185.51C1201.48 560.795 1215.84 558.098 1228.53 552.704C1241.23 547.31 1251.75 539.677 1260.02 529.788C1268.32 519.935 1273.77 508.376 1276.44 495.092C1278.72 483.478 1278.06 473.717 1274.45 465.809C1270.81 457.956 1265.21 452.03 1257.55 448.066C1249.93 444.14 1241.01 442.269 1230.79 442.452L1230.98 441.553C1240.11 441.553 1248.97 439.461 1257.62 435.296C1266.22 431.15 1273.59 425.333 1279.76 417.848C1285.92 410.398 1289.98 401.683 1291.96 391.72C1295.5 373.868 1291.43 359.667 1279.83 349.19L1279.81 349.208ZM1229.87 492.633C1227.96 502.174 1223.56 509.623 1216.69 515.018C1209.82 520.449 1201.24 523.146 1191.11 523.146H1162.15L1174.32 461.791H1203.28C1213.43 461.791 1220.91 464.561 1225.64 470.065C1230.33 475.533 1231.77 483.092 1229.89 492.633H1229.87ZM1243.66 397.959C1242.01 406.27 1238.1 412.857 1231.93 417.719C1225.77 422.581 1218.11 425.058 1208.97 425.058H1181.59L1192.25 371.189H1219.67C1228.8 371.189 1235.49 373.519 1239.78 378.198C1244.03 382.877 1245.34 389.464 1243.65 397.959H1243.66Z" fill="#191919"/>
<path d="M1585 447.021C1584.48 449.718 1583.45 452.378 1582.33 454.745C1580.6 458.415 1578.32 461.882 1575.57 464.873C1569.35 471.68 1560.55 475.13 1551.56 476.946C1542.57 478.762 1515.25 477.588 1503.85 474.854C1474.79 467.864 1444.8 468.011 1427.03 474.854C1415.76 479.203 1411.82 481.698 1405.85 486.799C1382.3 506.981 1371.75 555.787 1362.41 584.519C1356.06 604.17 1349.82 624.609 1335.53 640.113C1313.53 663.928 1276.9 670.424 1243.7 670.424H1066.87C1065.05 670.424 1063.67 668.772 1064.04 666.993L1067.46 649.452C1070.24 635.159 1082.82 624.848 1097.42 624.848H1226.3C1254.58 624.848 1284.84 620.903 1300.51 599.344C1309.31 587.216 1311.83 572.208 1315.42 557.915C1328.02 507.899 1332.2 461.662 1382.45 441.957C1367.64 432.728 1356.87 417.829 1353.13 401.445C1346.25 371.189 1362.54 340.732 1364.04 309.834C1364.7 296.679 1361.59 281.835 1350 274.533C1341.88 269.414 1331.46 269.249 1321.7 269.249C1285.06 269.286 1261.89 269.304 1219.3 269.341H1169.18C1150.01 269.341 1135.63 251.947 1139.3 233.214L1140.33 227.893C1140.6 226.535 1141.78 225.563 1143.16 225.563C1165.83 225.563 1292.07 225.691 1335.22 225.563C1360.13 225.508 1388.12 226.664 1404.99 243.947C1410.59 249.69 1414.16 256.369 1416.26 263.598C1416.37 263.891 1416.42 264.185 1416.51 264.497C1421.36 282.202 1417.55 303.101 1412.68 321.54C1406.42 345.539 1399.68 373.428 1413.13 396.362C1418.47 405.481 1426.84 412.215 1436.79 415.793C1442.35 417.793 1444.72 418.802 1450.62 418.747C1453.56 418.71 1456.51 418.435 1459.42 417.903C1465.22 416.894 1471.53 415.481 1476.76 414.453C1479.27 413.958 1481.79 413.518 1484.33 413.151C1491.22 412.178 1498.6 411.995 1505.62 413.389C1510.76 414.417 1515.78 416.307 1520.09 419.316C1524.68 422.526 1527.37 426.508 1529.78 431.462C1531.12 434.232 1532.8 437.04 1535.52 438.489C1540.4 441.076 1547.99 439.333 1553.24 438.911C1558.71 438.471 1564.14 437.627 1569.59 437.003C1572.24 436.691 1574.89 436.434 1577.56 436.306C1579.66 436.214 1581.94 436.471 1583.51 438.03C1584.63 439.15 1585.18 440.746 1585.29 442.342C1585.41 443.883 1585.28 445.443 1584.98 447.002L1585 447.021Z" fill="#191919"/>
</g>
<line x1="1813" y1="-1.74846e-07" x2="1813" y2="770" stroke="black" stroke-width="8"/>
<defs>
<clipPath id="clip0_1268_121">
<rect width="1585.37" height="444.861" fill="white" transform="translate(0 225.581)"/>
</clipPath>
</defs>
</svg>
