<svg width="577" height="440" viewBox="0 0 577 440" fill="none" xmlns="http://www.w3.org/2000/svg">
    <path fill-rule="evenodd" clip-rule="evenodd"
        d="M354.094 30.8847C310.521 24.2394 265.893 24.2394 222.333 30.8847C218.4 21.4354 212.587 9.89536 207.494 0.882025C206.601 -0.669975 204.201 0.243332 202.761 0.521999C180.521 5.062 93.2537 27.5753 87.547 37.03C24.4804 131.234 0.0668453 223.454 0.000178602 314.575C-0.0131547 330.241 0.720491 345.891 2.05382 361.497C2.42716 365.629 1.64049 365.346 4.85382 367.681C53.5338 403.143 100.72 424.782 147.054 439.179C147.8 439.407 148.6 439.141 149.067 438.505C160.16 423.377 170.027 407.417 178.507 390.625C179.014 389.638 178.534 388.479 177.52 388.087C161.84 382.138 146.921 374.887 132.561 366.657C131.414 366.005 131.32 364.377 132.374 363.593C135.4 361.334 138.427 358.982 141.307 356.593C141.814 356.163 142.547 356.07 143.161 356.349C237.041 399.214 339.4 399.214 433.267 356.349C433.88 356.07 434.6 356.163 435.133 356.593C438 358.982 441.04 361.334 444.054 363.593C445.094 364.377 445 366.005 443.867 366.657C429.507 374.887 414.587 382.138 398.907 388.087C397.894 388.479 397.414 389.638 397.907 390.625C406.387 407.417 416.267 423.377 427.361 438.505C427.827 439.141 428.627 439.407 429.374 439.179C475.707 424.782 522.894 403.143 571.574 367.681C574.787 365.346 574 365.629 574.374 361.497C575.707 345.891 576.441 330.241 576.427 314.575C576.361 223.454 551.947 131.234 488.88 37.03C483.174 27.5753 395.894 5.062 373.654 0.521999C372.214 0.243332 369.827 -0.669975 368.933 0.882025C363.84 9.89536 358.041 21.4354 354.094 30.8847ZM383.84 299.606C412.227 299.606 435.627 273.533 435.627 241.51C435.627 209.491 412.68 183.418 383.84 183.418C354.747 183.418 331.574 209.726 332.04 241.51C332.04 273.533 354.987 299.606 383.84 299.606ZM192.6 299.606C164.187 299.606 140.8 273.533 140.8 241.51C140.8 209.491 163.747 183.418 192.6 183.418C221.68 183.418 244.854 209.726 244.387 241.51C244.387 273.533 221.44 299.606 192.6 299.606Z"
        fill="#F7F3EF" />
</svg>