<svg version="1.1" id="Layer_1" xmlns="http://www.w3.org/2000/svg" xmlns:xlink="http://www.w3.org/1999/xlink" x="0px" y="0px"
	 width="100%" viewBox="0 0 508 508" enable-background="new 0 0 508 508" xml:space="preserve">
<path fill="#F7F3EF" opacity="1.000000" stroke="none" 
	d="
M1.000000,460.000000 
	C1.000000,322.976685 1.000000,185.953354 1.330083,48.770718 
	C4.202487,42.834534 6.279735,36.793392 9.381614,31.334469 
	C16.355442,19.061388 26.241116,9.861394 39.623997,4.676084 
	C41.594894,3.912443 43.216686,2.247780 45.000000,1.000000 
	C184.689987,1.000000 324.379974,1.000000 464.232178,1.315619 
	C464.714111,2.010278 464.960266,2.593909 465.364075,2.739038 
	C486.797455,10.442688 501.303894,24.631618 507.109161,47.067009 
	C507.224121,47.511345 508.347229,47.694824 509.000000,48.000004 
	C509.000000,185.023331 509.000000,322.046661 508.669922,459.229248 
	C507.898438,460.032043 507.204773,460.621460 507.053497,461.327118 
	C504.868103,471.520081 499.489990,480.043335 492.735535,487.661407 
	C483.695374,497.857300 472.295685,504.222229 458.930145,507.067291 
	C458.183472,507.226227 457.638733,508.333893 457.000000,509.000000 
	C322.643341,509.000000 188.286682,509.000000 53.771450,508.664429 
	C53.130219,507.901428 52.707119,507.208252 52.156353,507.084839 
	C26.662727,501.372864 9.936471,486.352966 2.892573,460.935486 
	C2.767325,460.483551 1.652878,460.305725 1.000000,460.000000 
M254.924072,115.719757 
	C261.616943,115.773750 268.309814,115.827744 275.762726,116.038544 
	C283.999969,117.440712 290.449249,121.313644 293.618347,129.400162 
	C294.703186,132.168289 295.297852,135.128540 296.029968,138.931412 
	C295.720551,144.955048 295.411133,150.978683 294.869232,157.759354 
	C293.757324,163.134674 292.645447,168.509979 291.166077,174.495209 
	C290.197601,178.998672 289.229156,183.502136 288.065399,188.849289 
	C287.740448,194.232712 287.415497,199.616135 286.989655,205.867630 
	C287.634979,220.749344 294.466003,232.381897 305.678741,241.793671 
	C306.733887,242.679352 307.152344,244.323502 307.155182,245.828690 
	C302.436707,248.579269 297.718231,251.329834 292.363556,254.268280 
	C284.086670,261.699615 277.641235,270.391998 273.448273,281.485992 
	C270.505585,291.956940 267.562866,302.427887 264.236694,313.502686 
	C261.845612,323.669617 259.454559,333.836517 256.731842,344.659729 
	C253.803040,354.745361 249.222153,363.803650 240.060410,370.722900 
	C232.892624,373.477936 225.805145,376.475586 218.523361,378.886353 
	C214.851364,380.102051 210.827194,380.253967 206.032364,380.817047 
	C194.352951,380.933319 182.673553,381.049591 170.064331,381.045013 
	C159.708557,381.085236 149.352768,381.125427 138.066895,381.043579 
	C132.954529,381.028992 127.802658,380.617584 122.741882,381.121338 
	C118.448189,381.548737 114.259697,383.033020 109.354614,384.190765 
	C108.028534,385.165680 106.612686,386.040161 105.391006,387.131897 
	C97.840828,393.879272 98.048195,403.530640 96.271576,412.380890 
	C96.150871,412.982178 98.690681,414.871216 100.010651,414.889374 
	C111.003204,415.040527 121.999863,414.892822 133.924942,414.966248 
	C143.281525,414.922424 152.638123,414.878601 162.924469,414.965149 
	C173.280075,414.921783 183.635666,414.878418 194.921616,414.964233 
	C205.955215,414.400604 216.988815,413.837006 228.899170,413.296387 
	C241.081009,411.914673 252.618393,408.613678 263.639160,401.673279 
	C273.630951,395.489471 280.841797,386.957611 285.749634,375.602570 
	C289.004364,366.477417 292.259064,357.352234 295.870636,347.612823 
	C298.925079,337.412537 301.979492,327.212219 305.531219,316.501312 
	C309.731537,307.078186 313.931854,297.655029 318.672424,287.820770 
	C322.126831,283.919281 325.581238,280.017792 329.669800,275.843018 
	C332.822510,273.992218 335.975250,272.141449 339.868713,270.149261 
	C342.911133,269.069061 345.953583,267.988892 349.823242,266.943085 
	C353.882568,266.306152 357.941895,265.669189 362.930939,265.106689 
	C368.283264,265.232697 373.635620,265.358704 379.849030,265.771790 
	C385.874542,266.581879 391.900024,267.391998 398.535278,268.658234 
	C404.689880,269.388458 410.844482,270.118652 417.924866,270.981445 
	C422.950073,270.920532 427.975311,270.859619 433.784424,270.885284 
	C439.268585,268.634460 444.752747,266.383636 450.852203,263.912292 
	C456.222839,259.538147 459.418457,253.847931 460.694641,247.115616 
	C461.491089,242.914291 459.246460,239.887177 455.102814,240.223282 
	C448.030273,240.796982 441.007416,241.983109 433.080261,242.856323 
	C425.850861,244.081665 421.216278,241.309189 418.080505,234.518356 
	C414.660004,227.110916 407.824188,224.083633 399.080566,222.958710 
	C393.999573,223.143646 388.918610,223.328583 382.993774,223.642395 
	C378.269928,224.589081 373.546082,225.535782 367.925812,226.643478 
	C362.329681,226.285385 356.733582,225.927292 350.583679,225.189468 
	C340.617340,221.348892 333.490021,214.606979 329.847717,204.490234 
	C328.621704,201.084885 327.892792,197.500580 327.002441,193.065979 
	C327.269836,186.707962 327.537231,180.349960 327.984650,173.175720 
	C329.250183,167.448349 330.515717,161.720978 331.986420,155.208221 
	C333.304077,148.471466 334.621735,141.734695 336.140472,134.188675 
	C340.376251,103.222343 324.682892,87.597939 296.149963,84.029259 
	C289.101898,83.738945 282.053833,83.448631 274.074463,83.042030 
	C267.051910,83.080025 260.029388,83.118027 252.074692,83.038109 
	C245.384018,83.075790 238.693344,83.113472 231.072311,83.035110 
	C225.381210,83.072845 219.690109,83.110580 213.067947,83.037720 
	C206.043915,83.075699 199.019897,83.113670 191.065048,83.041946 
	C183.710602,83.079468 176.356171,83.116989 168.105927,83.040764 
	C165.268250,83.826363 161.299362,80.818237 159.631378,85.509094 
	C156.478287,94.376541 159.536896,104.656502 166.868896,110.601013 
	C174.098602,116.462601 182.490906,116.186722 191.914658,115.718781 
	C199.269409,115.646881 206.624176,115.574989 214.895203,115.741989 
	C221.592133,115.663696 228.289062,115.585411 235.902176,115.744438 
	C241.939972,115.663597 247.977753,115.582756 254.924072,115.719757 
M174.335327,238.095108 
	C174.335846,236.155075 174.029419,234.156677 174.385483,232.284256 
	C177.212204,217.420059 180.313400,202.606430 182.982834,187.714996 
	C183.725388,183.572693 185.401306,182.343201 189.527863,182.415939 
	C203.521393,182.662613 217.524033,182.656738 231.519272,182.463058 
	C244.707932,182.280563 252.667419,175.417236 255.152069,162.623398 
	C255.659515,160.010422 256.234558,157.410675 256.754120,154.799988 
	C257.791229,149.588684 257.335876,149.004532 252.061813,149.003052 
	C219.233414,148.993759 186.404037,149.124496 153.577682,148.865311 
	C148.530075,148.825470 146.823853,150.378159 145.922272,155.194275 
	C140.261948,185.431442 134.276199,215.607635 128.416016,245.807465 
	C122.238747,277.641388 116.154617,309.493774 109.831375,341.298645 
	C108.952385,345.719818 109.702477,347.408020 114.476967,347.150909 
	C120.458740,346.828857 126.471367,347.116302 132.470016,347.064026 
	C145.241150,346.952728 153.628830,339.718842 156.033951,327.090881 
	C159.206680,310.432709 162.669174,293.828491 165.697296,277.144867 
	C166.379868,273.384247 167.803543,272.164429 171.536804,272.229370 
	C182.865005,272.426575 194.198883,272.324646 205.530441,272.294617 
	C219.639572,272.257233 227.300308,265.966309 230.279327,252.037552 
	C230.766251,249.760880 231.287643,247.490616 231.722870,245.204025 
	C232.843796,239.314697 232.526230,238.956589 226.532654,238.924698 
	C209.379578,238.833466 192.226562,238.733856 174.335327,238.095108 
z"/>
<path fill="#000000" opacity="1.000000" stroke="none" 
	d="
M1.000000,460.468658 
	C1.652878,460.305725 2.767325,460.483551 2.892573,460.935486 
	C9.936471,486.352966 26.662727,501.372864 52.156353,507.084839 
	C52.707119,507.208252 53.130219,507.901428 53.306435,508.664429 
	C35.742092,509.000000 18.484182,509.000000 1.000000,509.000000 
	C1.000000,492.979828 1.000000,476.958557 1.000000,460.468658 
z"/>
<path fill="#000000" opacity="1.000000" stroke="none" 
	d="
M457.468658,509.000000 
	C457.638733,508.333893 458.183472,507.226227 458.930145,507.067291 
	C472.295685,504.222229 483.695374,497.857300 492.735535,487.661407 
	C499.489990,480.043335 504.868103,471.520081 507.053497,461.327118 
	C507.204773,460.621460 507.898438,460.032043 508.669922,459.694275 
	C509.000000,476.262268 509.000000,492.524506 509.000000,509.000000 
	C491.979706,509.000000 474.958496,509.000000 457.468658,509.000000 
z"/>
<path fill="#000000" opacity="1.000000" stroke="none" 
	d="
M509.000000,47.531345 
	C508.347229,47.694824 507.224121,47.511345 507.109161,47.067009 
	C501.303894,24.631618 486.797455,10.442688 465.364075,2.739038 
	C464.960266,2.593909 464.714111,2.010278 464.697205,1.315619 
	C479.595795,1.000000 494.191589,1.000000 509.000000,1.000000 
	C509.000000,16.353575 509.000000,31.708128 509.000000,47.531345 
z"/>
<path fill="#000000" opacity="1.000000" stroke="none" 
	d="
M44.531342,1.000000 
	C43.216686,2.247780 41.594894,3.912443 39.623997,4.676084 
	C26.241116,9.861394 16.355442,19.061388 9.381614,31.334469 
	C6.279735,36.793392 4.202487,42.834534 1.330083,48.305702 
	C1.000000,32.409039 1.000000,16.818075 1.000000,1.000000 
	C15.353430,1.000000 29.708055,1.000000 44.531342,1.000000 
z"/>
<path fill="#1A1A1A" opacity="1.000000" stroke="none" 
	d="
M174.704422,238.366318 
	C192.226562,238.733856 209.379578,238.833466 226.532654,238.924698 
	C232.526230,238.956589 232.843796,239.314697 231.722870,245.204025 
	C231.287643,247.490616 230.766251,249.760880 230.279327,252.037552 
	C227.300308,265.966309 219.639572,272.257233 205.530441,272.294617 
	C194.198883,272.324646 182.865005,272.426575 171.536804,272.229370 
	C167.803543,272.164429 166.379868,273.384247 165.697296,277.144867 
	C162.669174,293.828491 159.206680,310.432709 156.033951,327.090881 
	C153.628830,339.718842 145.241150,346.952728 132.470016,347.064026 
	C126.471367,347.116302 120.458740,346.828857 114.476967,347.150909 
	C109.702477,347.408020 108.952385,345.719818 109.831375,341.298645 
	C116.154617,309.493774 122.238747,277.641388 128.416016,245.807465 
	C134.276199,215.607635 140.261948,185.431442 145.922272,155.194275 
	C146.823853,150.378159 148.530075,148.825470 153.577682,148.865311 
	C186.404037,149.124496 219.233414,148.993759 252.061813,149.003052 
	C257.335876,149.004532 257.791229,149.588684 256.754120,154.799988 
	C256.234558,157.410675 255.659515,160.010422 255.152069,162.623398 
	C252.667419,175.417236 244.707932,182.280563 231.519272,182.463058 
	C217.524033,182.656738 203.521393,182.662613 189.527863,182.415939 
	C185.401306,182.343201 183.725388,183.572693 182.982834,187.714996 
	C180.313400,202.606430 177.212204,217.420059 174.385483,232.284256 
	C174.029419,234.156677 174.335846,236.155075 174.704422,238.366318 
z"/>
<path fill="#CD67CF" opacity="1.000000" stroke="none" 
	d="
M331.781219,155.993591 
	C330.515717,161.720978 329.250183,167.448349 327.566925,173.538177 
	C325.643097,172.641693 323.860657,171.599060 322.677429,170.087402 
	C316.686523,162.433624 310.974976,154.559052 304.903625,146.971420 
	C302.301636,143.719589 299.064850,140.975693 296.116486,138.001007 
	C295.297852,135.128540 294.703186,132.168289 293.618347,129.400162 
	C290.449249,121.313644 283.999969,117.440712 275.374573,115.598801 
	C271.679199,110.294624 268.391235,105.416916 265.059662,100.569206 
	C261.061462,94.751457 257.026093,88.959274 253.006836,83.156021 
	C260.029388,83.118027 267.051910,83.080025 274.586090,83.435272 
	C276.058838,85.365181 276.900299,86.993721 277.999054,88.424728 
	C294.391083,109.774078 310.794708,131.114670 327.283569,152.389145 
	C328.427948,153.865646 330.265839,154.804626 331.781219,155.993591 
z"/>
<path fill="#DB67C7" opacity="1.000000" stroke="none" 
	d="
M291.533569,173.885284 
	C292.645447,168.509979 293.757324,163.134674 295.322601,157.424652 
	C296.574341,157.643585 297.573029,158.042099 298.140228,158.774689 
	C304.177917,166.573242 310.021454,174.525513 316.185852,182.221237 
	C319.501953,186.361115 323.336212,190.085968 326.936646,193.998077 
	C327.892792,197.500580 328.621704,201.084885 329.847717,204.490234 
	C333.490021,214.606979 340.617340,221.348892 350.845886,225.768311 
	C357.059937,234.385818 363.095154,242.364594 368.932404,250.485657 
	C372.443695,255.370743 375.646515,260.477539 378.987946,265.484711 
	C373.635620,265.358704 368.283264,265.232697 362.460144,264.698395 
	C360.907166,262.280579 360.077393,260.077148 358.704926,258.290649 
	C338.516113,232.011597 318.286835,205.763336 297.954041,179.595627 
	C296.226135,177.371872 293.692749,175.773941 291.533569,173.885284 
z"/>
<path fill="#FE68B0" opacity="1.000000" stroke="none" 
	d="
M318.132141,288.231873 
	C313.931854,297.655029 309.731537,307.078186 304.933777,316.714844 
	C303.521118,316.392456 302.489227,316.024384 301.924042,315.294769 
	C295.851471,307.455658 289.963776,299.470856 283.785675,291.717010 
	C280.771851,287.934479 277.254120,284.553436 273.964478,280.990662 
	C277.641235,270.391998 284.086670,261.699615 292.687805,254.533722 
	C293.470459,255.822784 293.747223,256.987213 294.415009,257.848541 
	C302.286835,268.002594 310.217194,278.111267 318.132141,288.231873 
z"/>
<path fill="#FF7481" opacity="1.000000" stroke="none" 
	d="
M262.992493,401.848328 
	C252.618393,408.613678 241.081009,411.914673 228.449768,412.886414 
	C225.381348,408.199493 222.906769,403.825287 220.109665,399.668121 
	C215.844360,393.328888 211.355942,387.139740 206.962265,380.886902 
	C210.827194,380.253967 214.851364,380.102051 218.523361,378.886353 
	C225.805145,376.475586 232.892624,373.477936 240.543228,370.937164 
	C245.366486,376.950287 249.788895,382.690155 254.020172,388.567596 
	C257.140228,392.901459 260.010773,397.414886 262.992493,401.848328 
z"/>
<path fill="#FF6BA4" opacity="1.000000" stroke="none" 
	d="
M273.706360,281.238342 
	C277.254120,284.553436 280.771851,287.934479 283.785675,291.717010 
	C289.963776,299.470856 295.851471,307.455658 301.924042,315.294769 
	C302.489227,316.024384 303.521118,316.392456 304.685120,316.970154 
	C301.979492,327.212219 298.925079,337.412537 295.337219,347.765411 
	C293.710297,346.904877 292.444763,346.023712 291.550629,344.857727 
	C284.493347,335.654999 277.596222,326.327667 270.423676,317.216736 
	C268.983948,315.387909 266.579712,314.318420 264.620178,312.898834 
	C267.562866,302.427887 270.505585,291.956940 273.706360,281.238342 
z"/>
<path fill="#C367D4" opacity="1.000000" stroke="none" 
	d="
M331.883820,155.600906 
	C330.265839,154.804626 328.427948,153.865646 327.283569,152.389145 
	C310.794708,131.114670 294.391083,109.774078 277.999054,88.424728 
	C276.900299,86.993721 276.058838,85.365181 275.051758,83.493416 
	C282.053833,83.448631 289.101898,83.738945 296.583191,84.468048 
	C297.775604,86.530464 298.275421,88.351036 299.334961,89.746651 
	C308.040833,101.213806 316.753326,112.678993 325.682281,123.972054 
	C328.785583,127.897011 332.502655,131.336639 335.939392,134.997940 
	C334.621735,141.734695 333.304077,148.471466 331.883820,155.600906 
z"/>
<path fill="#E267C3" opacity="1.000000" stroke="none" 
	d="
M291.349792,174.190247 
	C293.692749,175.773941 296.226135,177.371872 297.954041,179.595627 
	C318.286835,205.763336 338.516113,232.011597 358.704926,258.290649 
	C360.077393,260.077148 360.907166,262.280579 361.995270,264.661194 
	C357.941895,265.669189 353.882568,266.306152 349.368103,266.580750 
	C348.091919,264.794220 347.417725,263.257812 346.427917,261.962555 
	C329.134064,239.331711 311.828949,216.709274 294.435333,194.155121 
	C292.676483,191.874420 290.332916,190.044647 288.260681,188.005600 
	C289.229156,183.502136 290.197601,178.998672 291.349792,174.190247 
z"/>
<path fill="#FF708F" opacity="1.000000" stroke="none" 
	d="
M263.315826,401.760803 
	C260.010773,397.414886 257.140228,392.901459 254.020172,388.567596 
	C249.788895,382.690155 245.366486,376.950287 240.869568,370.785278 
	C249.222153,363.803650 253.803040,354.745361 257.237976,344.373077 
	C258.544556,344.631165 259.541962,345.020203 260.114807,345.744873 
	C265.499939,352.557312 270.713684,359.507416 276.187103,366.247070 
	C278.990814,369.699371 282.221466,372.804932 285.259155,376.067169 
	C280.841797,386.957611 273.630951,395.489471 263.315826,401.760803 
z"/>
<path fill="#FF7773" opacity="1.000000" stroke="none" 
	d="
M206.497314,380.851959 
	C211.355942,387.139740 215.844360,393.328888 220.109665,399.668121 
	C222.906769,403.825287 225.381348,408.199493 228.011383,412.874939 
	C216.988815,413.837006 205.955215,414.400604 194.412659,414.559326 
	C188.900177,407.233398 183.825989,400.362000 178.920624,393.372101 
	C176.135620,389.403595 173.627151,385.241028 170.994141,381.165863 
	C182.673553,381.049591 194.352951,380.933319 206.497314,380.851959 
z"/>
<path fill="#FF6E9A" opacity="1.000000" stroke="none" 
	d="
M285.504395,375.834869 
	C282.221466,372.804932 278.990814,369.699371 276.187103,366.247070 
	C270.713684,359.507416 265.499939,352.557312 260.114807,345.744873 
	C259.541962,345.020203 258.544556,344.631165 257.403809,344.044922 
	C259.454559,333.836517 261.845612,323.669617 264.428436,313.200745 
	C266.579712,314.318420 268.983948,315.387909 270.423676,317.216736 
	C277.596222,326.327667 284.493347,335.654999 291.550629,344.857727 
	C292.444763,346.023712 293.710297,346.904877 295.158783,348.072540 
	C292.259064,357.352234 289.004364,366.477417 285.504395,375.834869 
z"/>
<path fill="#FF7968" opacity="1.000000" stroke="none" 
	d="
M170.529236,381.105438 
	C173.627151,385.241028 176.135620,389.403595 178.920624,393.372101 
	C183.825989,400.362000 188.900177,407.233398 193.947479,414.494751 
	C183.635666,414.878418 173.280075,414.921783 162.454041,414.544983 
	C160.528732,411.792419 159.186005,409.380585 157.599106,407.141785 
	C151.440521,398.453217 145.204300,389.819672 138.996994,381.165649 
	C149.352768,381.125427 159.708557,381.085236 170.529236,381.105438 
z"/>
<path fill="#E867C0" opacity="1.000000" stroke="none" 
	d="
M288.163025,188.427444 
	C290.332916,190.044647 292.676483,191.874420 294.435333,194.155121 
	C311.828949,216.709274 329.134064,239.331711 346.427917,261.962555 
	C347.417725,263.257812 348.091919,264.794220 348.954498,266.563568 
	C345.953583,267.988892 342.911133,269.069061 339.345093,269.887512 
	C323.461426,249.505203 308.139832,229.354935 292.675842,209.314590 
	C291.285339,207.512589 288.974152,206.421051 287.090546,204.999557 
	C287.415497,199.616135 287.740448,194.232712 288.163025,188.427444 
z"/>
<path fill="#FF7C5E" opacity="1.000000" stroke="none" 
	d="
M138.531952,381.104614 
	C145.204300,389.819672 151.440521,398.453217 157.599106,407.141785 
	C159.186005,409.380585 160.528732,411.792419 161.989166,414.479767 
	C152.638123,414.878601 143.281525,414.922424 133.454163,414.545349 
	C132.354675,412.811096 131.945465,411.323364 131.062454,410.212067 
	C124.100876,401.450745 117.048859,392.761230 110.024658,384.049652 
	C114.259697,383.033020 118.448189,381.548737 122.741882,381.121338 
	C127.802658,380.617584 132.954529,381.028992 138.531952,381.104614 
z"/>
<path fill="#EE67BD" opacity="1.000000" stroke="none" 
	d="
M287.040100,205.433594 
	C288.974152,206.421051 291.285339,207.512589 292.675842,209.314590 
	C308.139832,229.354935 323.461426,249.505203 338.974701,269.958252 
	C335.975250,272.141449 332.822510,273.992218 329.307739,275.622589 
	C324.566162,269.702789 320.043640,264.106049 315.856354,258.268799 
	C312.953888,254.222595 310.513336,249.845032 307.866394,245.615524 
	C307.152344,244.323502 306.733887,242.679352 305.678741,241.793671 
	C294.466003,232.381897 287.634979,220.749344 287.040100,205.433594 
z"/>
<path fill="#C367D4" opacity="1.000000" stroke="none" 
	d="
M433.000519,270.798737 
	C427.975311,270.859619 422.950073,270.920532 417.416199,270.574341 
	C416.015594,268.586914 415.293274,266.877563 414.204407,265.447205 
	C406.792145,255.710419 399.190369,246.115875 391.892456,236.295074 
	C388.897552,232.264862 386.504456,227.787491 383.837616,223.513519 
	C388.918610,223.328583 393.999573,223.143646 399.547852,223.400970 
	C400.645935,225.344757 400.996124,227.059830 401.951172,228.314499 
	C410.843353,239.996704 419.893890,251.558563 428.758545,263.261353 
	C430.483368,265.538361 431.602173,268.274414 433.000519,270.798737 
z"/>
<path fill="#BB68D9" opacity="1.000000" stroke="none" 
	d="
M336.039917,134.593307 
	C332.502655,131.336639 328.785583,127.897011 325.682281,123.972054 
	C316.753326,112.678993 308.040833,101.213806 299.334961,89.746651 
	C298.275421,88.351036 297.775604,86.530464 297.008118,84.550476 
	C324.682892,87.597939 340.376251,103.222343 336.039917,134.593307 
z"/>
<path fill="#CD67CF" opacity="1.000000" stroke="none" 
	d="
M383.415710,223.577957 
	C386.504456,227.787491 388.897552,232.264862 391.892456,236.295074 
	C399.190369,246.115875 406.792145,255.710419 414.204407,265.447205 
	C415.293274,266.877563 416.015594,268.586914 416.953308,270.508026 
	C410.844482,270.118652 404.689880,269.388458 398.248840,268.046082 
	C397.447937,266.261322 397.138885,264.932587 396.385529,263.941589 
	C391.779816,257.882965 386.947601,251.993530 382.435059,245.867859 
	C377.753174,239.512360 373.348267,232.952805 368.822235,226.482483 
	C373.546082,225.535782 378.269928,224.589081 383.415710,223.577957 
z"/>
<path fill="#F368BA" opacity="1.000000" stroke="none" 
	d="
M213.978943,115.503098 
	C206.624176,115.574989 199.269409,115.646881 191.444611,115.278946 
	C187.861481,110.274353 184.779449,105.688019 181.627640,101.150162 
	C177.447540,95.131798 173.212921,89.151291 169.001724,83.154510 
	C176.356171,83.116989 183.710602,83.079468 191.538681,83.450638 
	C196.010635,89.408684 200.080582,94.908203 203.985733,100.522354 
	C207.412781,105.449165 210.655045,110.504517 213.978943,115.503098 
z"/>
<path fill="#E869C0" opacity="1.000000" stroke="none" 
	d="
M214.437073,115.622543 
	C210.655045,110.504517 207.412781,105.449165 203.985733,100.522354 
	C200.080582,94.908203 196.010635,89.408684 192.004089,83.505493 
	C199.019897,83.113670 206.043915,83.075699 213.541107,83.449936 
	C217.533798,88.934158 221.141190,93.947990 224.548706,99.094170 
	C228.127563,104.499100 231.514938,110.030815 234.985992,115.507126 
	C228.289062,115.585411 221.592133,115.663696 214.437073,115.622543 
z"/>
<path fill="#BD68D8" opacity="1.000000" stroke="none" 
	d="
M433.392456,270.842010 
	C431.602173,268.274414 430.483368,265.538361 428.758545,263.261353 
	C419.893890,251.558563 410.843353,239.996704 401.951172,228.314499 
	C400.996124,227.059830 400.645935,225.344757 400.008301,223.482010 
	C407.824188,224.083633 414.660004,227.110916 418.080505,234.518356 
	C421.216278,241.309189 425.850861,244.081665 433.662476,243.205154 
	C439.575439,250.413589 444.906189,257.273193 450.236908,264.132812 
	C444.752747,266.383636 439.268585,268.634460 433.392456,270.842010 
z"/>
<path fill="#FF7F55" opacity="1.000000" stroke="none" 
	d="
M109.689636,384.120209 
	C117.048859,392.761230 124.100876,401.450745 131.062454,410.212067 
	C131.945465,411.323364 132.354675,412.811096 132.989349,414.479919 
	C121.999863,414.892822 111.003204,415.040527 100.010651,414.889374 
	C98.690681,414.871216 96.150871,412.982178 96.271576,412.380890 
	C98.048195,403.530640 97.840828,393.879272 105.391006,387.131897 
	C106.612686,386.040161 108.028534,385.165680 109.689636,384.120209 
z"/>
<path fill="#D767C9" opacity="1.000000" stroke="none" 
	d="
M252.540771,83.097069 
	C257.026093,88.959274 261.061462,94.751457 265.059662,100.569206 
	C268.391235,105.416916 271.679199,110.294624 274.994568,115.520401 
	C268.309814,115.827744 261.616943,115.773750 254.452271,115.286591 
	C249.277771,108.359077 244.499374,101.917740 239.900681,95.350578 
	C237.123810,91.385086 234.625916,87.224228 232.002670,83.151154 
	C238.693344,83.113472 245.384018,83.075790 252.540771,83.097069 
z"/>
<path fill="#D467CB" opacity="1.000000" stroke="none" 
	d="
M368.374023,226.562988 
	C373.348267,232.952805 377.753174,239.512360 382.435059,245.867859 
	C386.947601,251.993530 391.779816,257.882965 396.385529,263.941589 
	C397.138885,264.932587 397.447937,266.261322 397.943970,267.818024 
	C391.900024,267.391998 385.874542,266.581879 379.418488,265.628235 
	C375.646515,260.477539 372.443695,255.370743 368.932404,250.485657 
	C363.095154,242.364594 357.059937,234.385818 351.122742,225.958160 
	C356.733582,225.927292 362.329681,226.285385 368.374023,226.562988 
z"/>
<path fill="#F667B9" opacity="1.000000" stroke="none" 
	d="
M307.510803,245.722107 
	C310.513336,249.845032 312.953888,254.222595 315.856354,258.268799 
	C320.043640,264.106049 324.566162,269.702789 328.990662,275.759247 
	C325.581238,280.017792 322.126831,283.919281 318.402283,288.026306 
	C310.217194,278.111267 302.286835,268.002594 294.415009,257.848541 
	C293.747223,256.987213 293.470459,255.822784 293.005890,254.439789 
	C297.718231,251.329834 302.436707,248.579269 307.510803,245.722107 
z"/>
<path fill="#D467CB" opacity="1.000000" stroke="none" 
	d="
M326.969543,193.532028 
	C323.336212,190.085968 319.501953,186.361115 316.185852,182.221237 
	C310.021454,174.525513 304.177917,166.573242 298.140228,158.774689 
	C297.573029,158.042099 296.574341,157.643585 295.438843,157.046143 
	C295.411133,150.978683 295.720551,144.955048 296.073242,138.466217 
	C299.064850,140.975693 302.301636,143.719589 304.903625,146.971420 
	C310.974976,154.559052 316.686523,162.433624 322.677429,170.087402 
	C323.860657,171.599060 325.643097,172.641693 327.476929,173.946289 
	C327.537231,180.349960 327.269836,186.707962 326.969543,193.532028 
z"/>
<path fill="#E069C5" opacity="1.000000" stroke="none" 
	d="
M231.537491,83.093132 
	C234.625916,87.224228 237.123810,91.385086 239.900681,95.350578 
	C244.499374,101.917740 249.277771,108.359077 253.998016,115.177673 
	C247.977753,115.582756 241.939972,115.663597 235.444092,115.625778 
	C231.514938,110.030815 228.127563,104.499100 224.548706,99.094170 
	C221.141190,93.947990 217.533798,88.934158 214.006653,83.505234 
	C219.690109,83.110580 225.381210,83.072845 231.537491,83.093132 
z"/>
<path fill="#FC68B5" opacity="1.000000" stroke="none" 
	d="
M168.553833,83.097641 
	C173.212921,89.151291 177.447540,95.131798 181.627640,101.150162 
	C184.779449,105.688019 187.861481,110.274353 190.990311,115.166901 
	C182.490906,116.186722 174.098602,116.462601 166.868896,110.601013 
	C159.536896,104.656502 156.478287,94.376541 159.631378,85.509094 
	C161.299362,80.818237 165.268250,83.826363 168.553833,83.097641 
z"/>
<path fill="#B469DD" opacity="1.000000" stroke="none" 
	d="
M450.544556,264.022552 
	C444.906189,257.273193 439.575439,250.413589 434.104187,243.232971 
	C441.007416,241.983109 448.030273,240.796982 455.102814,240.223282 
	C459.246460,239.887177 461.491089,242.914291 460.694641,247.115616 
	C459.418457,253.847931 456.222839,259.538147 450.544556,264.022552 
z"/>
</svg>