<svg width="861" height="243" viewBox="0 0 861 243" fill="none" xmlns="http://www.w3.org/2000/svg">
<g clip-path="url(#clip0_1761_100)">
<path d="M157.99 96.4002C152.19 90.5702 143.38 87.6602 131.53 87.6602C119.68 87.6602 110.5 90.4102 102.25 95.8902C102.16 95.9402 102.08 96.0001 102 96.0602C92.13 102.72 97.08 118.21 108.98 118.21H109.17C109.73 118.21 110.23 117.85 110.46 117.34C111.68 114.59 113.64 112.39 116.32 110.74C119.27 108.94 122.71 108.04 126.67 108.04C130.95 108.04 134.16 109.11 136.26 111.25C138.37 113.41 139.08 116.3 138.36 119.91L136.99 126.88H117.69C105.51 126.88 95.69 129.39 88.21 134.42C80.72 139.45 76.06 146.68 74.2 156.06C72.48 164.78 73.84 171.67 78.32 176.76C82.77 181.86 89.7 184.4 99.06 184.4C107.41 184.4 114.5 182.34 120.34 178.21C124.41 175.32 127.4 171.73 129.3 167.42H129.82L127.12 181.01C126.95 181.89 127.62 182.71 128.5 182.71H139.74C146.48 182.71 152.26 177.94 153.57 171.33L163.74 119.91C165.68 110.07 163.77 102.24 157.99 96.4102V96.4002ZM132.16 151.31C131.32 155.61 129.02 159.09 125.28 161.74C121.53 164.4 117.19 165.73 112.22 165.73C107.71 165.73 104.37 164.63 102.21 162.42C100.06 160.22 99.35 157.19 100.11 153.34C100.83 149.73 102.59 146.82 105.4 144.6C108.2 142.4 111.51 141.3 115.35 141.3H134.13L132.16 151.31Z" fill="white"/>
<path d="M225.81 159.79H208.92C205.88 159.79 203.6 158.86 202.12 156.99C200.62 155.13 200.18 152.67 200.79 149.61L218.41 60.5101C218.58 59.6401 217.91 58.8301 217.02 58.8301H176.91C176.23 58.8301 175.66 59.3101 175.52 59.9601L171.55 80.0501C171.38 80.9201 172.05 81.7301 172.93 81.7301H187.11C188 81.7301 188.67 82.5501 188.5 83.4201L175.41 149.61C174.11 156.17 174.35 161.95 176.13 166.92C177.91 171.9 181.01 175.78 185.42 178.55C189.83 181.33 195.32 182.71 201.86 182.71H221.85C222.53 182.71 223.1 182.23 223.24 181.57L227.21 161.48C227.38 160.61 226.71 159.8 225.83 159.8L225.81 159.79Z" fill="white"/>
<path d="M328.43 89.3601H303.74C303.3 89.3601 302.88 89.5701 302.61 89.9201L276.6 124.65H268.31L280.99 60.5001C281.16 59.6301 280.49 58.8201 279.61 58.8201H257.1C256.43 58.8201 255.85 59.3001 255.72 59.9501L231.79 181.01C231.62 181.88 232.29 182.69 233.17 182.69H245.25C251.98 182.69 257.77 177.93 259.08 171.33L264.08 146.04H272.2L284.25 181.73C284.44 182.3 284.98 182.69 285.58 182.69H311.33C312.31 182.69 312.99 181.72 312.66 180.81L296.37 135.01L329.54 91.6301C330.25 90.7001 329.59 89.3601 328.42 89.3601H328.43Z" fill="white"/>
<path d="M406.86 105.39C404.63 99.7902 400.81 95.4402 395.4 92.3302C389.98 89.2202 383.1 87.6602 374.75 87.6602C366.4 87.6602 359.05 89.2202 352.34 92.3302C345.64 95.4402 340.06 99.7902 335.63 105.39C331.19 110.99 328.24 117.52 326.76 124.99L322.4 147.05C320.92 154.51 321.29 161.05 323.51 166.65C325.73 172.25 329.58 176.61 335.05 179.72C340.53 182.83 347.38 184.39 355.61 184.39C363.84 184.39 371.45 182.83 378.1 179.72C384.75 176.61 390.3 172.25 394.73 166.65C399.16 161.05 402.12 154.52 403.59 147.05L407.95 124.99C409.42 117.52 409.05 110.99 406.84 105.39H406.86ZM382.6 125L378.24 147.06C377.28 151.92 375.24 155.68 372.12 158.34C369 160.99 364.96 162.33 360 162.33C355.04 162.33 351.66 161 349.53 158.34C347.4 155.68 346.83 151.92 347.79 147.06L352.15 125C353.14 120.03 355.21 116.23 358.37 113.63C361.53 111.03 365.54 109.73 370.4 109.73C375.26 109.73 378.88 111.03 380.97 113.63C383.05 116.23 383.59 120.03 382.61 125H382.6Z" fill="white"/>
<path d="M500.43 123.3C499.99 125.53 498.79 127.43 497.16 128.78C495.51 130.12 493.41 130.92 491.14 130.92H473.57C472.68 130.92 472.02 130.12 472.19 129.24L473.04 124.98C474.04 119.89 473.43 115.93 471.24 113.11C469.04 110.28 465.61 108.87 461 108.87C456.14 108.87 452.17 110.28 449.07 113.11C445.97 115.93 443.92 119.89 442.91 124.98L433.76 171.31C432.45 177.92 426.65 182.69 419.93 182.69H407.85C406.96 182.69 406.3 181.87 406.47 181L424.36 90.4902C424.49 89.8302 425.08 89.3602 425.74 89.3602H446.55C447.44 89.3602 448.11 90.1602 447.95 91.0402L444.75 107.17H445.02C447.08 102.32 449.81 98.3602 453.2 95.3002C458.83 90.2102 466.1 87.6602 475.01 87.6602C485.27 87.6602 492.63 90.7802 497.1 96.9902C501.57 103.22 502.68 111.99 500.44 123.3H500.43Z" fill="white"/>
<path d="M91.1899 58.8101H24.9199C24.2499 58.8101 23.6699 59.2901 23.5399 59.9501L0.0299146 181.02C-0.140085 181.89 0.529914 182.7 1.40991 182.7H15.1699C21.9099 182.7 27.7199 177.91 29.0099 171.29L35.6599 137.1C35.7899 136.44 36.3699 135.95 37.0399 135.95H61.6199C68.3799 135.95 74.1799 131.16 75.4599 124.53L76.9799 116.69C77.1499 115.83 76.4799 115.01 75.5899 115.01H41.6299C40.7499 115.01 40.0699 114.2 40.2499 113.33L46.5899 80.88C46.7199 80.22 47.2999 79.74 47.9699 79.74H77.2199C83.9799 79.74 89.7799 74.9501 91.0599 68.32L92.5799 60.48C92.7499 59.61 92.0799 58.8 91.1899 58.8V58.8101Z" fill="white"/>
<path d="M606.23 77.5601C603.86 71.6201 599.8 67.0101 594.09 63.7301C588.36 60.4701 581.22 58.8101 572.63 58.8101H534.18C533.22 58.8101 532.4 59.4901 532.22 60.4201L508.53 180.31C508.29 181.55 509.23 182.7 510.49 182.7H548.15C556.72 182.7 564.53 181.03 571.55 177.7C578.59 174.35 584.49 169.68 589.22 163.7C593.95 157.7 597.1 150.74 598.67 142.81L607.42 98.5301C609.01 90.4901 608.62 83.4901 606.24 77.5601H606.23ZM582.05 98.5401L573.28 142.82C572.32 147.7 569.97 151.59 566.24 154.53C562.49 157.49 558.02 158.96 552.84 158.96H538.13L553.23 82.5901H567.94C573.12 82.5901 577.02 84.0601 579.59 87.0001C582.16 89.9401 583 93.7901 582.06 98.5501L582.05 98.5401Z" fill="white"/>
<path d="M695.03 67.3801C688.73 61.6701 679.3 58.8101 666.77 58.8101H628.67C627.72 58.8101 626.89 59.4901 626.71 60.4201L603 180.31C602.76 181.55 603.7 182.7 604.96 182.7H643.82C652.49 182.7 660.29 181.23 667.18 178.29C674.08 175.35 679.79 171.19 684.28 165.8C688.79 160.43 691.75 154.13 693.2 146.89C694.44 140.56 694.08 135.24 692.12 130.93C690.14 126.65 687.1 123.42 682.94 121.26C678.8 119.12 673.96 118.1 668.41 118.2L668.51 117.71C673.47 117.71 678.28 116.57 682.98 114.3C687.65 112.04 691.65 108.87 695 104.79C698.35 100.73 700.55 95.9801 701.63 90.5501C703.55 80.8201 701.34 73.0801 695.04 67.3701L695.03 67.3801ZM667.91 145.55C666.87 150.75 664.48 154.81 660.75 157.75C657.02 160.71 652.36 162.18 646.86 162.18H631.13L637.74 128.74H653.47C658.98 128.74 663.04 130.25 665.61 133.25C668.16 136.23 668.94 140.35 667.92 145.55H667.91ZM675.4 93.9501C674.5 98.4801 672.38 102.07 669.03 104.72C665.68 107.37 661.52 108.72 656.56 108.72H641.69L647.48 79.3601H662.37C667.33 79.3601 670.96 80.6301 673.29 83.1801C675.6 85.7301 676.31 89.3201 675.39 93.9501H675.4Z" fill="white"/>
<path d="M860.77 120.69C860.49 122.16 859.93 123.61 859.32 124.9C858.38 126.9 857.14 128.79 855.65 130.42C852.27 134.13 847.49 136.01 842.61 137C837.73 137.99 822.89 137.35 816.7 135.86C800.92 132.05 784.63 132.13 774.98 135.86C768.86 138.23 766.72 139.59 763.48 142.37C750.69 153.37 744.96 179.97 739.89 195.63C736.44 206.34 733.05 217.48 725.29 225.93C713.34 238.91 693.45 242.45 675.42 242.45H579.39C578.4 242.45 577.65 241.55 577.85 240.58L579.71 231.02C581.22 223.23 588.05 217.61 595.98 217.61H665.97C681.33 217.61 697.76 215.46 706.27 203.71C711.05 197.1 712.42 188.92 714.37 181.13C721.21 153.87 723.48 128.67 750.77 117.93C742.73 112.9 736.88 104.78 734.85 95.85C731.11 79.36 739.96 62.76 740.77 45.92C741.13 38.75 739.44 30.66 733.15 26.68C728.74 23.89 723.08 23.8 717.78 23.8C697.88 23.82 685.3 23.83 662.17 23.85H634.95C624.54 23.85 616.73 14.37 618.72 4.15996L619.28 1.25996C619.43 0.519957 620.07 -0.0100433 620.82 -0.0100433C633.13 -0.0100433 701.69 0.0599567 725.12 -0.0100433C738.65 -0.0400433 753.85 0.589957 763.01 10.01C766.05 13.14 767.99 16.78 769.13 20.72C769.19 20.88 769.22 21.04 769.27 21.21C771.9 30.86 769.83 42.25 767.19 52.3C763.79 65.38 760.13 80.58 767.43 93.08C770.33 98.05 774.88 101.72 780.28 103.67C783.3 104.76 784.59 105.31 787.79 105.28C789.39 105.26 790.99 105.11 792.57 104.82C795.72 104.27 799.15 103.5 801.99 102.94C803.35 102.67 804.72 102.43 806.1 102.23C809.84 101.7 813.85 101.6 817.66 102.36C820.45 102.92 823.18 103.95 825.52 105.59C828.01 107.34 829.47 109.51 830.78 112.21C831.51 113.72 832.42 115.25 833.9 116.04C836.55 117.45 840.67 116.5 843.52 116.27C846.49 116.03 849.44 115.57 852.4 115.23C853.84 115.06 855.28 114.92 856.73 114.85C857.87 114.8 859.11 114.94 859.96 115.79C860.57 116.4 860.87 117.27 860.93 118.14C860.99 118.98 860.92 119.83 860.76 120.68L860.77 120.69Z" fill="url(#paint0_linear_1761_100)"/>
</g>
<defs>
<linearGradient id="paint0_linear_1761_100" x1="860.999" y1="-0.000241644" x2="572.929" y2="235.806" gradientUnits="userSpaceOnUse">
<stop stop-color="#7466FF"/>
<stop offset="0.5" stop-color="#FF66B3"/>
<stop offset="1" stop-color="#FF804D"/>
</linearGradient>
<clipPath id="clip0_1761_100">
<rect width="860.97" height="242.46" fill="white"/>
</clipPath>
</defs>
</svg>
