<svg width="4611" height="770" viewBox="0 0 4611 770" fill="none" xmlns="http://www.w3.org/2000/svg">
<path d="M4415.04 611.823V286.605H4496.34V323.323H4508.14C4512.95 310.21 4520.82 300.593 4531.75 294.473C4543.11 288.354 4556.23 285.294 4571.09 285.294H4610.43V358.73H4569.78C4548.8 358.73 4531.53 364.413 4517.98 375.778C4504.43 386.706 4497.65 403.754 4497.65 426.921V611.823H4415.04Z" fill="#FF66B3"/>
<path d="M4224.14 621.006C4191.79 621.006 4163.16 614.23 4138.24 600.68C4113.77 586.692 4094.53 567.24 4080.54 542.324C4066.99 516.971 4060.22 487.247 4060.22 453.151V445.283C4060.22 411.188 4066.99 381.682 4080.54 356.766C4094.1 331.413 4113.11 311.961 4137.59 298.411C4162.07 284.423 4190.48 277.429 4222.83 277.429C4254.74 277.429 4282.49 284.641 4306.1 299.066C4329.7 313.054 4348.06 332.725 4361.18 358.078C4374.29 382.993 4380.85 412.062 4380.85 445.283V473.478H4144.15C4145.02 495.771 4153.33 513.911 4169.06 527.899C4184.8 541.887 4204.03 548.881 4226.76 548.881C4249.93 548.881 4266.98 543.854 4277.91 533.8C4288.83 523.746 4297.14 512.6 4302.82 500.36L4370.36 535.767C4364.24 547.132 4355.28 559.59 4343.47 573.141C4332.11 586.255 4316.81 597.62 4297.58 607.237C4278.34 616.416 4253.86 621.006 4224.14 621.006ZM4144.8 411.843H4296.92C4295.17 393.047 4287.52 377.967 4273.97 366.601C4260.86 355.236 4243.59 349.554 4222.17 349.554C4199.88 349.554 4182.18 355.236 4169.06 366.601C4155.95 377.967 4147.86 393.047 4144.8 411.843Z" fill="#FF66B3"/>
<path d="M3906.53 621.006C3864.12 621.006 3829.37 611.826 3802.27 593.467C3775.17 575.108 3758.78 548.881 3753.1 514.785L3829.15 495.115C3832.21 510.414 3837.24 522.435 3844.24 531.177C3851.67 539.92 3860.63 546.258 3871.12 550.192C3882.05 553.689 3893.85 555.438 3906.53 555.438C3925.76 555.438 3939.96 552.159 3949.14 545.602C3958.32 538.609 3962.91 530.085 3962.91 520.031C3962.91 509.977 3958.54 502.327 3949.8 497.082C3941.06 491.399 3927.07 486.81 3907.84 483.313L3889.48 480.034C3866.75 475.663 3845.98 469.762 3827.19 462.331C3808.39 454.463 3793.31 443.753 3781.95 430.203C3770.58 416.652 3764.9 399.167 3764.9 377.748C3764.9 345.401 3776.7 320.704 3800.3 303.656C3823.91 286.171 3854.94 277.429 3893.41 277.429C3929.69 277.429 3959.85 285.515 3983.9 301.689C4007.94 317.862 4023.67 339.063 4031.1 365.29L3954.39 388.895C3950.89 372.284 3943.68 360.482 3932.75 353.488C3922.26 346.494 3909.15 342.997 3893.41 342.997C3877.68 342.997 3865.65 345.838 3857.35 351.521C3849.04 356.766 3844.89 364.197 3844.89 373.814C3844.89 384.305 3849.26 392.173 3858 397.418C3866.75 402.227 3878.55 405.942 3893.41 408.565L3911.77 411.843C3936.25 416.215 3958.32 422.116 3977.99 429.547C3998.1 436.541 4013.84 446.813 4025.2 460.364C4037.01 473.478 4042.91 491.399 4042.91 514.13C4042.91 548.225 4030.45 574.671 4005.53 593.467C3981.05 611.826 3948.05 621.006 3906.53 621.006Z" fill="#FF66B3"/>
<path d="M3322.85 611.826L3276.95 286.607H3358.91L3387.76 556.093H3399.56L3441.52 286.607H3573.97L3615.93 556.093H3627.74L3656.59 286.607H3738.55L3692.65 611.826H3555.61L3513.65 342.34H3501.85L3459.88 611.826H3322.85Z" fill="#FF66B3"/>
<path d="M3090.51 621.006C3058.16 621.006 3029.09 614.449 3003.3 601.335C2977.51 588.222 2957.19 569.207 2942.32 544.291C2927.46 519.375 2920.03 489.432 2920.03 454.463V443.972C2920.03 409.002 2927.46 379.059 2942.32 354.143C2957.19 329.228 2977.51 310.213 3003.3 297.099C3029.09 283.986 3058.16 277.429 3090.51 277.429C3122.86 277.429 3151.92 283.986 3177.71 297.099C3203.5 310.213 3223.83 329.228 3238.69 354.143C3253.55 379.059 3260.99 409.002 3260.99 443.972V454.463C3260.99 489.432 3253.55 519.375 3238.69 544.291C3223.83 569.207 3203.5 588.222 3177.71 601.335C3151.92 614.449 3122.86 621.006 3090.51 621.006ZM3090.51 547.57C3115.86 547.57 3136.84 539.483 3153.45 523.309C3170.06 506.699 3178.37 483.094 3178.37 452.496V445.939C3178.37 415.34 3170.06 391.954 3153.45 375.781C3137.28 359.17 3116.3 350.865 3090.51 350.865C3065.16 350.865 3044.17 359.17 3027.56 375.781C3010.95 391.954 3002.65 415.34 3002.65 445.939V452.496C3002.65 483.094 3010.95 506.699 3027.56 523.309C3044.17 539.483 3065.16 547.57 3090.51 547.57Z" fill="#FF66B3"/>
<path d="M2726.67 611.824V286.606H2807.97V323.324H2819.77C2824.58 310.211 2832.45 300.594 2843.38 294.474C2854.74 288.355 2867.86 285.295 2882.72 285.295H2922.06V358.731H2881.41C2860.43 358.731 2843.16 364.414 2829.61 375.779C2816.06 386.707 2809.28 403.755 2809.28 426.922V611.824H2726.67Z" fill="#FF66B3"/>
<path d="M2314.85 611.824V535.765H2375.18V228.906H2314.85V152.847H2550.9C2578.87 152.847 2603.13 157.655 2623.68 167.272C2644.66 176.451 2660.83 189.783 2672.2 207.268C2684 224.316 2689.9 244.861 2689.9 268.902V275.459C2689.9 296.441 2685.97 313.707 2678.1 327.258C2670.23 340.372 2660.83 350.644 2649.91 358.075C2639.42 365.069 2629.36 370.096 2619.75 373.156V384.958C2629.36 387.581 2639.85 392.608 2651.22 400.039C2662.58 407.033 2672.2 417.305 2680.07 430.856C2688.37 444.406 2692.53 462.11 2692.53 483.966V490.523C2692.53 515.876 2686.62 537.732 2674.82 556.091C2663.02 574.013 2646.63 587.782 2625.65 597.399C2605.1 607.015 2581.06 611.824 2553.52 611.824H2314.85ZM2461.73 533.142H2543.03C2561.83 533.142 2576.91 528.552 2588.27 519.373C2600.08 510.193 2605.98 497.08 2605.98 480.032V473.475C2605.98 456.427 2600.29 443.314 2588.93 434.134C2577.56 424.955 2562.26 420.365 2543.03 420.365H2461.73V533.142ZM2461.73 341.683H2541.72C2559.64 341.683 2574.28 337.093 2585.65 327.914C2597.45 318.734 2603.35 306.058 2603.35 289.884V283.327C2603.35 266.717 2597.67 254.04 2586.31 245.298C2574.94 236.118 2560.08 231.528 2541.72 231.528H2461.73V341.683Z" fill="#FF66B3"/>
<line x1="1871.85" y1="-1.74846e-07" x2="1871.85" y2="770" stroke="white" stroke-width="8"/>
<g clip-path="url(#clip0_821_243)">
<path d="M269.38 372.205C259.491 362.274 244.47 357.317 224.265 357.317C204.06 357.317 188.407 362.002 174.341 371.336C174.187 371.421 174.051 371.524 173.914 371.626C157.086 382.97 165.526 409.355 185.816 409.355H186.14C187.094 409.355 187.947 408.742 188.339 407.874C190.419 403.189 193.761 399.442 198.331 396.631C203.361 393.565 209.226 392.032 215.978 392.032C223.276 392.032 228.749 393.855 232.33 397.5C235.927 401.179 237.138 406.102 235.91 412.251L233.574 424.124H200.667C179.899 424.124 163.156 428.399 150.402 436.967C137.631 445.535 129.685 457.85 126.514 473.828C123.581 488.682 125.9 500.418 133.539 509.088C141.126 517.775 152.942 522.102 168.902 522.102C183.139 522.102 195.228 518.593 205.185 511.558C212.125 506.635 217.223 500.52 220.462 493.178H221.349L216.745 516.327C216.456 517.826 217.598 519.223 219.098 519.223H238.263C249.755 519.223 259.61 511.098 261.844 499.839L279.184 412.251C282.492 395.49 279.236 382.153 269.38 372.222V372.205ZM225.339 465.737C223.907 473.062 219.985 478.989 213.608 483.503C207.214 488.034 199.814 490.3 191.34 490.3C183.65 490.3 177.955 488.426 174.272 484.662C170.607 480.914 169.396 475.753 170.692 469.195C171.92 463.046 174.92 458.089 179.712 454.307C184.486 450.56 190.129 448.686 196.677 448.686H228.698L225.339 465.737Z" fill="#F7F3EF"/>
<path d="M385.018 480.182H356.22C351.037 480.182 347.149 478.597 344.626 475.412C342.068 472.244 341.318 468.054 342.358 462.841L372.401 311.071C372.691 309.589 371.549 308.209 370.031 308.209H301.641C300.482 308.209 299.51 309.027 299.271 310.134L292.502 344.355C292.212 345.837 293.355 347.216 294.855 347.216H319.033C320.55 347.216 321.693 348.613 321.403 350.095L299.084 462.841C296.867 474.015 297.276 483.861 300.311 492.327C303.346 500.809 308.632 507.419 316.151 512.137C323.671 516.872 333.031 519.223 344.182 519.223H378.266C379.426 519.223 380.398 518.405 380.636 517.281L387.406 483.06C387.695 481.578 386.553 480.199 385.053 480.199L385.018 480.182Z" fill="#F7F3EF"/>
<path d="M559.991 360.213H517.894C517.143 360.213 516.427 360.571 515.967 361.167L471.619 420.325H457.484L479.104 311.054C479.394 309.572 478.251 308.192 476.751 308.192H438.37C437.228 308.192 436.239 309.01 436.017 310.117L395.215 516.328C394.925 517.81 396.068 519.189 397.568 519.189H418.165C429.64 519.189 439.512 511.081 441.746 499.839L450.271 456.761H464.116L484.662 517.554C484.986 518.525 485.907 519.189 486.93 519.189H530.835C532.506 519.189 533.665 517.537 533.103 515.987L505.327 437.972L561.884 364.08C563.095 362.496 561.969 360.213 559.974 360.213H559.991Z" fill="#F7F3EF"/>
<path d="M693.718 387.518C689.916 377.979 683.403 370.57 674.178 365.272C664.937 359.975 653.206 357.317 638.969 357.317C624.732 357.317 612.2 359.975 600.759 365.272C589.335 370.57 579.821 377.979 572.267 387.518C564.697 397.057 559.667 408.18 557.143 420.904L549.709 458.481C547.186 471.188 547.817 482.328 551.602 491.867C555.387 501.406 561.952 508.832 571.278 514.13C580.622 519.427 592.302 522.085 606.334 522.085C620.367 522.085 633.342 519.427 644.681 514.13C656.02 508.832 665.483 501.406 673.036 491.867C680.589 482.328 685.636 471.205 688.143 458.481L695.577 420.904C698.083 408.18 697.452 397.057 693.684 387.518H693.718ZM652.354 420.921L644.92 458.498C643.283 466.776 639.804 473.181 634.485 477.712C629.165 482.226 622.276 484.508 613.819 484.508C605.362 484.508 599.599 482.243 595.968 477.712C592.336 473.181 591.364 466.776 593.001 458.498L600.435 420.921C602.123 412.456 605.652 405.983 611.04 401.554C616.428 397.125 623.265 394.911 631.552 394.911C639.839 394.911 646.011 397.125 649.574 401.554C653.121 405.983 654.042 412.456 652.371 420.921H652.354Z" fill="#F7F3EF"/>
<path d="M853.26 418.026C852.51 421.824 850.464 425.061 847.685 427.36C844.871 429.643 841.291 431.005 837.42 431.005H807.463C805.945 431.005 804.82 429.643 805.11 428.144L806.559 420.887C808.264 412.217 807.224 405.472 803.49 400.668C799.739 395.848 793.89 393.446 786.03 393.446C777.744 393.446 770.974 395.848 765.689 400.668C760.403 405.472 756.908 412.217 755.186 420.887L739.584 499.805C737.351 511.064 727.461 519.189 716.004 519.189H695.406C693.889 519.189 692.764 517.792 693.054 516.31L723.557 362.138C723.779 361.014 724.785 360.213 725.91 360.213H761.392C762.91 360.213 764.052 361.576 763.779 363.075L758.323 390.55H758.783C762.296 382.289 766.951 375.543 772.731 370.331C782.33 361.661 794.726 357.317 809.918 357.317C827.412 357.317 839.961 362.632 847.583 373.21C855.204 383.822 857.097 398.76 853.277 418.026H853.26Z" fill="#F7F3EF"/>
<path d="M155.484 308.175H42.4898C41.3474 308.175 40.3585 308.993 40.1369 310.117L0.0510375 516.345C-0.238822 517.826 0.903564 519.206 2.40401 519.206H25.8655C37.3576 519.206 47.264 511.047 49.4635 499.771L60.8021 441.532C61.0238 440.408 62.0127 439.573 63.1551 439.573H105.065C116.591 439.573 126.481 431.414 128.663 420.121L131.255 406.767C131.545 405.302 130.402 403.905 128.885 403.905H70.9813C69.4808 403.905 68.3214 402.525 68.6283 401.043L79.4383 345.769C79.66 344.644 80.6489 343.827 81.7913 343.827H131.664C143.19 343.827 153.08 335.668 155.262 324.374L157.854 311.02C158.144 309.538 157.001 308.158 155.484 308.158V308.175Z" fill="#F7F3EF"/>
<path d="M1033.65 340.113C1029.61 329.995 1022.69 322.142 1012.95 316.555C1003.18 311.002 991.01 308.175 976.364 308.175H910.805C909.168 308.175 907.77 309.333 907.463 310.917L867.07 515.135C866.661 517.247 868.263 519.206 870.412 519.206H934.624C949.237 519.206 962.553 516.361 974.522 510.689C986.526 504.983 996.586 497.028 1004.65 486.842C1012.72 476.621 1018.09 464.766 1020.76 451.258L1035.68 375.833C1038.39 362.138 1037.73 350.214 1033.67 340.113H1033.65ZM992.425 375.85L977.472 451.275C975.835 459.588 971.828 466.214 965.469 471.222C959.075 476.264 951.453 478.768 942.621 478.768H917.54L943.286 348.681H968.367C977.199 348.681 983.849 351.185 988.231 356.193C992.613 361.201 994.045 367.759 992.443 375.867L992.425 375.85Z" fill="#F7F3EF"/>
<path d="M1185.06 322.773C1174.32 313.046 1158.24 308.175 1136.88 308.175H1071.91C1070.29 308.175 1068.88 309.333 1068.57 310.917L1028.15 515.135C1027.74 517.247 1029.34 519.206 1031.49 519.206H1097.75C1112.53 519.206 1125.83 516.702 1137.58 511.694C1149.34 506.686 1159.08 499.6 1166.73 490.419C1174.42 481.272 1179.47 470.54 1181.94 458.208C1184.06 447.426 1183.44 438.364 1180.1 431.022C1176.72 423.732 1171.54 418.23 1164.45 414.55C1157.39 410.905 1149.14 409.168 1139.67 409.338L1139.84 408.504C1148.3 408.504 1156.5 406.562 1164.52 402.695C1172.48 398.845 1179.3 393.446 1185.01 386.496C1190.72 379.58 1194.47 371.489 1196.32 362.24C1199.59 345.666 1195.82 332.482 1185.08 322.756L1185.06 322.773ZM1138.82 455.925C1137.05 464.783 1132.97 471.699 1126.61 476.707C1120.25 481.749 1112.31 484.253 1102.93 484.253H1076.11L1087.38 427.292H1114.2C1123.59 427.292 1130.52 429.864 1134.9 434.974C1139.25 440.05 1140.58 447.068 1138.84 455.925H1138.82ZM1151.59 368.031C1150.06 375.748 1146.44 381.863 1140.73 386.377C1135.02 390.891 1127.93 393.19 1119.47 393.19H1094.11L1103.99 343.179H1129.38C1137.83 343.179 1144.02 345.342 1147.99 349.686C1151.93 354.03 1153.14 360.145 1151.57 368.031H1151.59Z" fill="#F7F3EF"/>
<path d="M1467.66 413.58C1467.18 416.084 1466.23 418.554 1465.19 420.751C1463.58 424.158 1461.47 427.378 1458.93 430.154C1453.17 436.474 1445.02 439.676 1436.69 441.362C1428.37 443.049 1403.07 441.958 1392.52 439.42C1365.61 432.931 1337.84 433.067 1321.38 439.42C1310.95 443.457 1307.3 445.774 1301.77 450.509C1279.97 469.246 1270.2 514.556 1261.55 541.231C1255.67 559.474 1249.89 578.45 1236.66 592.843C1216.28 614.953 1182.37 620.983 1151.63 620.983H987.89C986.202 620.983 984.923 619.45 985.264 617.798L988.436 601.513C991.01 588.244 1002.66 578.671 1016.18 578.671H1135.51C1161.7 578.671 1189.72 575.009 1204.23 554.994C1212.38 543.735 1214.71 529.801 1218.04 516.532C1229.7 470.098 1233.57 427.173 1280.1 408.879C1266.39 400.311 1256.42 386.48 1252.96 371.268C1246.58 343.18 1261.67 314.904 1263.05 286.219C1263.67 274.006 1260.78 260.226 1250.06 253.446C1242.54 248.694 1232.89 248.54 1223.85 248.54C1189.92 248.574 1168.47 248.591 1129.03 248.626H1082.62C1064.87 248.626 1051.56 232.478 1054.95 215.086L1055.9 210.146C1056.16 208.886 1057.25 207.983 1058.53 207.983C1079.52 207.983 1196.42 208.102 1236.37 207.983C1259.44 207.932 1285.35 209.005 1300.97 225.051C1306.16 230.382 1309.46 236.583 1311.41 243.294C1311.51 243.567 1311.56 243.839 1311.65 244.129C1316.13 260.566 1312.6 279.968 1308.1 297.087C1302.3 319.367 1296.06 345.258 1308.51 366.55C1313.45 375.016 1321.21 381.267 1330.42 384.589C1335.57 386.445 1337.77 387.382 1343.22 387.331C1345.95 387.297 1348.68 387.042 1351.37 386.548C1356.74 385.611 1362.59 384.299 1367.44 383.345C1369.75 382.885 1372.09 382.477 1374.44 382.136C1380.82 381.233 1387.66 381.063 1394.15 382.357C1398.91 383.311 1403.57 385.066 1407.56 387.859C1411.8 390.84 1414.29 394.537 1416.52 399.136C1417.77 401.708 1419.32 404.314 1421.84 405.66C1426.36 408.061 1433.39 406.443 1438.25 406.051C1443.31 405.643 1448.34 404.859 1453.39 404.28C1455.84 403.99 1458.3 403.752 1460.77 403.633C1462.71 403.547 1464.83 403.786 1466.28 405.234C1467.32 406.273 1467.83 407.755 1467.93 409.237C1468.03 410.667 1467.91 412.115 1467.64 413.563L1467.66 413.58Z" fill="#F7F3EF"/>
</g>
<defs>
<clipPath id="clip0_821_243">
<rect width="1468" height="413" fill="white" transform="translate(0 208)"/>
</clipPath>
</defs>
</svg>
